<svg t="1733987731308" class="icon" viewBox="0 0 1024 1024" version="1.1" xmlns="http://www.w3.org/2000/svg" p-id="5478" width="64" height="64"><path d="M222.218667 418.005333a21.333333 21.333333 0 0 1 21.333333-21.333333H753.386667a21.333333 21.333333 0 0 1 21.333333 21.333333v452.48a21.333333 21.333333 0 0 1-21.333333 21.333334H243.552a21.333333 21.333333 0 0 1-21.333333-21.333334v-452.48z" fill="#A15B33" p-id="5479"></path><path d="M243.552 375.338667H753.386667a42.666667 42.666667 0 0 1 42.666666 42.666666v452.48a42.666667 42.666667 0 0 1-42.666666 42.666667H243.552a42.666667 42.666667 0 0 1-42.666667-42.666667v-452.48a42.666667 42.666667 0 0 1 42.666667-42.666666z m0 21.333333a21.333333 21.333333 0 0 0-21.333333 21.333333v452.48a21.333333 21.333333 0 0 0 21.333333 21.333334H753.386667a21.333333 21.333333 0 0 0 21.333333-21.333334v-452.48a21.333333 21.333333 0 0 0-21.333333-21.333333H243.552z" fill="#643012" p-id="5480"></path><path d="M710.72 891.829333h42.666667a21.333333 21.333333 0 0 0 21.333333-21.333333v-452.48a21.333333 21.333333 0 0 0-21.333333-21.333333h-42.666667a21.333333 21.333333 0 0 1 21.333333 21.333333v452.48a21.333333 21.333333 0 0 1-21.333333 21.333333z" fill="#985129" p-id="5481"></path><path d="M542.72 604.053333a8.512 8.512 0 1 1 0 17.013334 8.512 8.512 0 0 1 0-17.013334zM755.04 617.066667a8.512 8.512 0 1 1 0 17.013333 8.512 8.512 0 0 1 0-17.013333zM630.826667 598.314667a11.488 11.488 0 1 1 0 22.965333 11.488 11.488 0 0 1 0-22.965333zM593.493333 604.053333a8.618667 8.618667 0 1 1 0 17.226667 8.618667 8.618667 0 0 1 0-17.226667zM680.170667 597.056a17.866667 17.866667 0 1 1 0 35.733333 17.866667 17.866667 0 0 1 0-35.733333zM645.941333 632.768a9.365333 9.365333 0 1 1 0 18.741333 9.365333 9.365333 0 0 1 0-18.741333zM726.762667 594.144a11.488 11.488 0 1 1 0 22.976 11.488 11.488 0 0 1 0-22.976zM717.397333 627.338667a6.965333 6.965333 0 1 1 0 13.941333 6.965333 6.965333 0 0 1 0-13.941333zM752.064 651.498667a11.488 11.488 0 1 1 0 22.976 11.488 11.488 0 0 1 0-22.976zM700.16 649.781333a11.488 11.488 0 1 1 0.010667 22.976 11.488 11.488 0 0 1 0-22.976zM754.944 691.893333a8.618667 8.618667 0 1 1 0 17.237334 8.618667 8.618667 0 0 1 0-17.226667zM459.712 604.053333a8.512 8.512 0 1 0 0 17.013334 8.512 8.512 0 0 0 0-17.013334zM247.392 617.066667a8.512 8.512 0 1 0 0 17.013333 8.512 8.512 0 0 0 0-17.013333zM371.616 598.314667a11.488 11.488 0 1 0 0 22.965333 11.488 11.488 0 0 0 0-22.965333zM408.938667 604.053333a8.618667 8.618667 0 1 0 0 17.226667 8.618667 8.618667 0 0 0 0-17.226667zM322.261333 597.056a17.866667 17.866667 0 1 0 0 35.733333 17.866667 17.866667 0 0 0 0-35.733333zM356.501333 632.768a9.365333 9.365333 0 1 0 0 18.730667 9.365333 9.365333 0 0 0 0-18.730667zM275.68 594.144a11.488 11.488 0 1 0 0 22.976 11.488 11.488 0 0 0 0-22.976zM285.045333 627.338667a6.965333 6.965333 0 1 0 0 13.941333 6.965333 6.965333 0 0 0 0-13.941333zM250.378667 651.498667a11.488 11.488 0 1 0 0 22.976 11.488 11.488 0 0 0 0-22.976zM302.272 649.781333a11.488 11.488 0 1 0 0 22.976 11.488 11.488 0 0 0 0-22.976zM247.498667 691.893333a8.618667 8.618667 0 1 0 0 17.237334 8.618667 8.618667 0 0 0 0-17.226667z" fill="#823F18" p-id="5482"></path><path d="M200.426667 272.768a84.981333 84.981333 0 0 1 81.248-60.096h412.48a84.981333 84.981333 0 0 1 81.258666 60.096l61.258667 200.053333c16.725333 54.613333-24.128 109.866667-81.248 109.866667H220.416c-57.130667 0-97.984-55.253333-81.258667-109.866667l61.258667-200.053333z" fill="#76CBFB" p-id="5483"></path><path d="M281.674667 191.338667h412.48c46.730667 0 87.978667 30.506667 101.653333 75.189333l61.269333 200.053333c20.917333 68.330667-30.186667 137.429333-101.653333 137.429334H220.416c-71.466667 0-122.581333-69.098667-101.653333-137.429334l61.258666-200.053333a106.314667 106.314667 0 0 1 101.653334-75.189333z m0 21.333333a84.981333 84.981333 0 0 0-81.258667 60.096l-61.258667 200.053333c-16.725333 54.613333 24.128 109.866667 81.248 109.866667h535.018667c57.12 0 97.973333-55.253333 81.248-109.866667l-61.258667-200.053333a84.981333 84.981333 0 0 0-81.248-60.096H281.674667z" fill="#2286BE" p-id="5484"></path><path d="M293.866667 247.765333a16 16 0 0 1 11.936 19.232l-61.333334 261.333334a16 16 0 0 1-31.157333-7.306667l61.333333-261.333333a16 16 0 0 1 19.232-11.925334zM385.408 250.112a16 16 0 0 1 14.037333 17.749333l-29.333333 252a16 16 0 1 1-31.786667-3.701333l29.333334-252a16 16 0 0 1 17.749333-14.048zM480.885333 250.005333a16 16 0 0 1 16 16v250.666667a16 16 0 1 1-32 0v-250.666667a16 16 0 0 1 16-16zM574.88 252.8a16 16 0 0 1 17.877333 13.866667l32 253.333333a16 16 0 0 1-31.744 4.010667l-32-253.333334a16 16 0 0 1 13.866667-17.877333zM674.304 253.162667a16 16 0 0 1 19.424 11.594666l64 253.333334a16 16 0 1 1-31.018667 7.84l-64-253.333334a16 16 0 0 1 11.594667-19.434666z" fill="#5DB8EB" p-id="5485"></path><path d="M303.797333 648.277333c-7.818667 0-14.165333 6.336-14.165333 14.154667v40.725333c0 7.818667 6.346667 14.165333 14.165333 14.165334h31.861334c7.829333 0 14.165333-6.346667 14.165333-14.165334v-40.725333c0-7.818667-6.336-14.154667-14.165333-14.154667h-31.861334zM303.797333 745.642667c-7.818667 0-14.165333 6.346667-14.165333 14.165333v40.714667c0 7.829333 6.346667 14.165333 14.165333 14.165333h31.861334c7.829333 0 14.165333-6.336 14.165333-14.165333v-40.714667c0-7.818667-6.336-14.165333-14.165333-14.165333h-31.861334zM401.173333 759.808c0-7.818667 6.336-14.165333 14.154667-14.165333h31.872c7.818667 0 14.165333 6.346667 14.165333 14.165333v40.714667c0 7.829333-6.346667 14.165333-14.165333 14.165333h-31.872a14.165333 14.165333 0 0 1-14.165333-14.165333v-40.714667zM415.328 648.277333c-7.818667 0-14.165333 6.336-14.165333 14.154667v40.725333c0 7.818667 6.346667 14.165333 14.165333 14.165334h31.872c7.818667 0 14.165333-6.346667 14.165333-14.165334v-40.725333c0-7.818667-6.346667-14.154667-14.165333-14.154667h-31.872z" fill="#FB9D47" p-id="5486"></path><path d="M543.68 768.672a59.754667 59.754667 0 1 1 119.498667 0v106.304H543.68v-106.304z" fill="#67361A" p-id="5487"></path><path d="M684.512 896.309333H522.346667V768.672a81.088 81.088 0 0 1 162.165333 0v127.637333zM603.434667 708.906667a59.754667 59.754667 0 0 0-59.754667 59.754666v106.304h119.498667v-106.304a59.754667 59.754667 0 0 0-59.744-59.754666z" fill="#643012" p-id="5488"></path><path d="M615.541333 723.562667a10.666667 10.666667 0 0 1-10.208 11.093333 42.549333 42.549333 0 0 0-23.722666 9.152c-7.466667 6.058667-14.058667 16.170667-14.058667 33.536v43.925333h-21.333333v-43.925333c0-23.701333 9.418667-39.936 21.941333-50.101333a63.84 63.84 0 0 1 36.277333-13.888 10.666667 10.666667 0 0 1 11.104 10.208z" fill="#965129" p-id="5489"></path><path d="M156.394667 456.906667a21.333333 21.333333 0 0 1 24.256 17.941333c1.792 11.968 13.685333 38.133333 46.698666 41.973333 39.509333 4.586667 72.373333-11.434667 82.250667-18.688 0.832-0.597333 1.706667-1.152 2.613333-1.632 20.373333-10.816 67.797333-19.754667 119.253334 9.653334 22.698667 12.970667 50.346667 15.381333 75.04 12.8a168.170667 168.170667 0 0 0 31.306666-6.24c7.712-2.368 11.562667-4.341333 12.448-4.8 0.181333-0.085333 0.234667-0.106667 0.192-0.074667 9.034667-7.029333 27.562667-16.213333 50.24-20.746667 23.221333-4.650667 52.693333-4.8 82.432 8.853334 23.541333 10.826667 45.866667 17.706667 66.122667 17.557333 19.242667-0.128 37.6-6.538667 54.773333-24.778667a21.333333 21.333333 0 0 1 31.072 29.237334c-25.504 27.093333-55.146667 38.005333-85.568 38.208-29.408 0.202667-58.421333-9.6-84.213333-21.44-19.584-9.002667-39.456-9.162667-56.245333-5.802667-17.301333 3.456-29.44 10.272-32.416 12.586667-6.272 4.874667-16.405333 8.949333-26.314667 11.989333a210.794667 210.794667 0 0 1-39.402667 7.893333c-29.642667 3.093333-67.328 0.832-100.629333-18.197333-36.693333-20.970667-67.573333-13.909333-77.056-9.525333-17.813333 12.384-60.181333 31.413333-110.826667 25.525333-58.72-6.826667-80.426667-54.442667-83.968-78.026667a21.333333 21.333333 0 0 1 17.930667-24.266666zM221.237333 259.925333a21.333333 21.333333 0 0 1 25.482667 16.16c-0.021333-0.074667 0-0.042667 0.064 0.096 0.704 1.418667 6.912 14.016 34.133333 16.138667 33.344 2.602667 60.693333-6.485333 68.416-10.282667 0.736-0.362667 1.482667-0.682667 2.250667-0.96 16.149333-5.738667 53.781333-10.634667 95.36 5.290667 18.773333 7.189333 41.941333 8.576 62.613333 7.125333 10.133333-0.704 19.168-2.058667 26.058667-3.477333 5.941333-1.226667 9.12-2.261333 10.069333-2.570667 0.288-0.096 0.373333-0.128 0.277334-0.074666 7.648-3.978667 22.698667-8.917333 40.778666-11.349334 18.453333-2.474667 41.856-2.581333 65.738667 4.768 39.381333 12.128 73.973333 15.008 100.032-3.552a21.333333 21.333333 0 1 1 24.746667 34.752c-43.626667 31.072-96.138667 22.272-137.333334 9.578667-16.405333-5.045333-33.290667-5.162667-47.509333-3.253333-14.581333 1.952-24.576 5.770667-26.730667 6.890666-5.333333 2.773333-13.578667 4.970667-21.461333 6.602667-8.725333 1.792-19.637333 3.413333-31.68 4.245333-23.712 1.664-53.898667 0.490667-80.853333-9.834666-30.432-11.658667-56.725333-7.786667-64.938667-5.226667-14.869333 6.912-48.906667 17.002667-89.152 13.866667-45.162667-3.52-67.946667-29.066667-72.512-49.450667a21.333333 21.333333 0 0 1 16.149333-25.482667zM176.021333 363.808a21.333333 21.333333 0 0 1 25.301334 16.426667c0.394667 1.866667 7.904 20.778667 43.349333 23.68 39.52 3.253333 72-8.053333 81.514667-12.981334 0.746667-0.384 1.525333-0.736 2.325333-1.024 18.325333-6.88 61.76-12.906667 109.813333 6.485334 22.517333 9.088 50.069333 10.773333 74.442667 8.970666a227.456 227.456 0 0 0 30.848-4.341333c8.224-1.781333 12.213333-3.285333 12.8-3.52a0.618667 0.618667 0 0 1 0.074667-0.021333c8.554667-4.693333 25.834667-10.72 46.816-13.674667 21.354667-3.018667 48.373333-3.136 75.861333 5.781333 46.186667 14.976 87.786667 18.976 119.584-4.874666a21.333333 21.333333 0 1 1 25.6 34.133333c-49.813333 37.354667-110.186667 26.944-158.346667 11.328-19.690667-6.389333-39.84-6.506667-56.736-4.128-17.28 2.453333-29.312 7.221333-32.234666 8.832-5.824 3.2-15.136 5.845333-24.373334 7.84a269.866667 269.866667 0 0 1-36.768 5.205333c-27.584 2.026667-62.506667 0.554667-93.536-11.957333-36.426667-14.698667-67.925333-9.781333-77.941333-6.442667-16.853333 8.309333-56.384 20.768-103.232 16.917334-52.266667-4.288-76.896-35.189333-81.6-57.333334a21.333333 21.333333 0 0 1 16.437333-25.301333z" fill="#EBFFFE" p-id="5490"></path><path d="M425.376 932.96c-8.426667 2.688-17.173333 5.482667-26.56 8.213333-28.053333 8.106667-46.965333 9.130667-70.165333 5.205334-10.602667-1.802667-22.08-4.629333-35.157334-7.850667l-0.576-0.138667c-13.525333-3.328-29.461333-7.253333-49.738666-11.498666-59.893333-12.565333-86.485333 10.186667-90.229334 15.466666a21.333333 21.333333 0 1 1-34.794666-24.693333c15.808-22.282667 61.397333-47.712 133.781333-32.533333 21.024 4.405333 37.568 8.48 51.114667 11.818666h0.064c13.770667 3.402667 23.776 5.845333 32.672 7.36 16.138667 2.730667 28.554667 2.421333 51.168-4.128a901.813333 901.813333 0 0 0 22.208-6.869333c17.866667-5.696 37.376-11.904 56.106666-15.434667 28.384-5.344 59.146667-5.674667 91.04 8.672 50.026667 22.506667 106.186667 34.048 170.88 6.506667 33.429333-14.250667 69.546667-15.317333 100.053334-11.594667 30.549333 3.733333 57.28 12.490667 73.226666 19.84a21.333333 21.333333 0 1 1-17.834666 38.752c-12.053333-5.546667-34.517333-13.056-60.565334-16.234666-26.101333-3.189333-53.984-1.813333-78.154666 8.48-79.306667 33.781333-148.48 18.656-205.12-6.826667-21.44-9.664-42.666667-9.984-65.632-5.664-16.16 3.04-31.338667 7.893333-47.786667 13.152z" fill="#9EDFDF" p-id="5491"></path><path d="M331.552 152.672a10.666667 10.666667 0 0 1 10.666667-10.666667h53.333333a10.666667 10.666667 0 0 1 10.666667 10.666667v88a10.666667 10.666667 0 0 1-10.666667 10.666667h-53.333333a10.666667 10.666667 0 0 1-10.666667-10.666667v-88z" fill="#A05B33" p-id="5492"></path><path d="M342.218667 120.672h53.333333a32 32 0 0 1 32 32v88a32 32 0 0 1-32 32h-53.333333a32 32 0 0 1-32-32v-88a32 32 0 0 1 32-32z m0 21.333333a10.666667 10.666667 0 0 0-10.666667 10.666667v88a10.666667 10.666667 0 0 0 10.666667 10.666667h53.333333a10.666667 10.666667 0 0 0 10.666667-10.666667v-88a10.666667 10.666667 0 0 0-10.666667-10.666667h-53.333333z" fill="#643012" p-id="5493"></path><path d="M302.890667 107.68H429.546667v53.333333H302.890667v-53.333333z" fill="#BF6C3C" p-id="5494"></path><path d="M286.890667 113.013333a21.333333 21.333333 0 0 1 21.333333-21.333333H424.213333a21.333333 21.333333 0 0 1 21.333334 21.333333v42.666667a21.333333 21.333333 0 0 1-21.333334 21.333333h-10.346666a10.666667 10.666667 0 1 1 0-21.333333h10.346666v-42.666667H308.224v42.666667h20.661333a10.666667 10.666667 0 1 1 0 21.333333h-20.661333a21.333333 21.333333 0 0 1-21.333333-21.333333v-42.666667z" fill="#643012" p-id="5495"></path><path d="M308.885333 119.178667a5.333333 5.333333 0 0 1 5.333334-5.333334h93.333333a5.333333 5.333333 0 1 1 0 10.666667h-93.333333a5.333333 5.333333 0 0 1-5.333334-5.333333z" fill="#E38E5C" p-id="5496"></path><path d="M307.264 678.005333a10.666667 10.666667 0 0 1 10.666667-10.666666h4.330666a10.666667 10.666667 0 0 1 10.666667 10.666666v7.338667a10.666667 10.666667 0 0 1-10.666667 10.666667h-4.330666a10.666667 10.666667 0 0 1-10.666667-10.666667v-7.338667zM419.605333 678.005333a10.666667 10.666667 0 0 1 10.666667-10.666666h4.330667a10.666667 10.666667 0 0 1 10.666666 10.666666v7.338667a10.666667 10.666667 0 0 1-10.666666 10.666667h-4.330667a10.666667 10.666667 0 0 1-10.666667-10.666667v-7.338667zM417.6 776a10.666667 10.666667 0 0 1 10.666667-10.666667h4.341333a10.666667 10.666667 0 0 1 10.666667 10.666667v7.338667a10.666667 10.666667 0 0 1-10.666667 10.666666h-4.341333a10.666667 10.666667 0 0 1-10.666667-10.666666v-7.328zM307.264 776a10.666667 10.666667 0 0 1 10.666667-10.666667h4.330666a10.666667 10.666667 0 0 1 10.666667 10.666667v7.338667a10.666667 10.666667 0 0 1-10.666667 10.666666h-4.330666a10.666667 10.666667 0 0 1-10.666667-10.666666v-7.328z" fill="#FFCE50" p-id="5497"></path></svg>