<svg t="1733987989939" class="icon" viewBox="0 0 1024 1024" version="1.1" xmlns="http://www.w3.org/2000/svg" p-id="6424" width="64" height="64"><path d="M154.666667 428c22.08 76.608 117.333333 185.333333 177.333333 230.666667 69.493333-13.013333 201.610667-46.613333 168.757333-110.4-32.853333-63.786667-13.685333-134.026667 0-161.173334 22.645333-24.309333 54.336-78.368 0-100.085333-54.325333-21.706667-79.498667 33.930667-85.28 64.469333-58.453333-120.448-145.312-178.133333-208.490666-130.624-63.178667 47.498667-80.672 108.778667-52.32 207.146667z" fill="#EA382D" p-id="6425"></path><path d="M326.656 681.365333l9.269333-1.728c35.04-6.56 87.765333-18.613333 128.042667-37.888 19.872-9.514667 39.381333-22.005333 51.381333-38.72 6.229333-8.661333 10.709333-18.858667 11.701334-30.421333 0.992-11.626667-1.664-23.114667-7.328-34.112-27.626667-53.632-12.928-113.941333-1.109334-139.317333 12.181333-13.696 27.114667-35.488 31.904-58.805334 2.645333-12.842667 2.485333-27.626667-4.629333-41.642666-7.2-14.186667-20.053333-24.672-37.205333-31.530667-17.194667-6.869333-33.642667-8.16-48.746667-4.213333-14.933333 3.914667-26.752 12.458667-35.733333 22.218666a103.733333 103.733333 0 0 0-11.904 15.882667c-25.941333-42.485333-56.053333-75.626667-87.818667-95.893333-42.197333-26.901333-89.706667-31.914667-130.314667-1.386667-34.56 25.973333-58.112 56.981333-68.309333 96.170667-10.048 38.645333-6.442667 82.741333 8.309333 133.930666 12.234667 42.453333 43.733333 91.466667 78.304 134.506667 34.869333 43.413333 74.912 83.285333 106.666667 107.274667l7.52 5.674666z m74.464-357.226666c-57.653333-101.557333-135.946667-147.04-194.133333-103.285334-63.178667 47.498667-80.672 108.778667-52.32 207.146667 22.08 76.608 117.333333 185.333333 177.333333 230.666667 69.493333-13.013333 201.610667-46.613333 168.757333-110.4-32.853333-63.786667-13.685333-134.026667 0-161.173334 22.645333-24.309333 54.336-78.368 0-100.085333-39.456-15.765333-63.530667 9.258667-75.968 35.84-4.693333 10.026667-7.733333 20.266667-9.312 28.629333a478.4 478.4 0 0 0-14.357333-27.338666z" fill="#840808" p-id="6426"></path><path d="M355.413333 653.941333c71.733333-15.584 174.794667-48.512 145.344-105.674666-32.853333-63.786667-13.685333-134.026667 0-161.173334 22.645333-24.309333 54.336-78.368 0-100.085333-23.488-9.386667-41.525333-4.309333-54.901333 6.933333 3.904 0.810667 7.978667 2.026667 12.234667 3.733334 54.336 21.717333 22.645333 75.776 0 100.096-13.685333 27.136-32.853333 97.376 0 161.162666 23.914667 46.421333-39.562667 76.864-102.688 95.008z m39.306667-340.714666C340.693333 224.213333 270.72 183.04 215.84 214.976c53.685333 2.144 113.28 57.12 156.96 147.168 2.72-14.304 9.685333-34.133333 21.92-48.917333z" fill="#CA2D23" p-id="6427"></path><path d="M562.656 620.512c15.925333-15.381333 17.76-40.970667 2.88-56.576a156.565333 156.565333 0 0 0-14.698667-13.792c-7.178667-5.749333-17.130667-11.850667-25.344-16.554667-9.184-5.248-20.416-4.512-29.546666 1.408L324.565333 646.208c-12.181333 7.893333-18.101333 23.36-13.525333 37.333333 2.848 8.704 6.272 18.197333 9.781333 25.6 2.752 5.834667 6.506667 12.373333 10.346667 18.592 9.450667 15.317333 27.797333 20.874667 44.32 14.218667 28.245333-11.36 72.042667-30.357333 101.824-49.770667 28.48-18.56 62.208-49.312 85.354667-71.669333z" fill="#BDEAE6" p-id="6428"></path><path d="M485.504 516.384l-171.413333 111.210667c-20.074667 13.034667-30.656 39.221333-22.666667 63.658666 2.944 8.96 6.709333 19.498667 10.805333 28.16 3.253333 6.869333 7.466667 14.186667 11.488 20.693334 14.933333 24.181333 43.552 32.405333 68.629334 22.325333 28.266667-11.381333 73.770667-31.018667 105.450666-51.669333 30.336-19.786667 65.365333-51.818667 88.586667-74.24 24.032-23.232 27.84-63.338667 3.936-88.384a176.405333 176.405333 0 0 0-16.682667-15.626667c-8.437333-6.752-19.52-13.493333-27.893333-18.282667-16.021333-9.173333-35.157333-7.637333-50.24 2.154667z m80.032 47.552c14.88 15.605333 13.045333 41.184-2.88 56.576-23.146667 22.357333-56.885333 53.098667-85.354667 71.669333-29.781333 19.413333-73.578667 38.4-101.824 49.770667-16.533333 6.656-34.869333 1.098667-44.32-14.218667a200.298667 200.298667 0 0 1-10.346666-18.581333c-3.509333-7.413333-6.933333-16.906667-9.781334-25.6-4.576-13.973333 1.354667-29.44 13.525334-37.344l171.402666-111.210667c9.12-5.92 20.352-6.656 29.536-1.408 8.213333 4.693333 18.165333 10.805333 25.344 16.554667 4.757333 3.808 9.834667 8.693333 14.698667 13.792z" fill="#68C5BD" p-id="6429"></path><path d="M543.84 603.349333a7.637333 7.637333 0 1 1-7.84 13.098667 7.637333 7.637333 0 0 1 7.84-13.098667zM523.968 585.152a7.637333 7.637333 0 1 1-7.850667 13.098667 7.637333 7.637333 0 0 1 7.850667-13.098667zM542.784 573.802667a4.949333 4.949333 0 1 1-5.088 8.501333 4.949333 4.949333 0 0 1 5.088-8.501333zM505.28 638.048a7.637333 7.637333 0 1 1-7.84 13.098667 7.637333 7.637333 0 0 1 7.84-13.098667zM474.954667 623.658667a7.637333 7.637333 0 1 1-7.84 13.109333 7.637333 7.637333 0 0 1 7.84-13.109333zM444.906667 673.888a7.637333 7.637333 0 1 1-7.850667 13.098667 7.637333 7.637333 0 0 1 7.84-13.098667zM480 651.786667a11.136 11.136 0 1 1-11.434667 19.093333A11.136 11.136 0 0 1 480 651.797333zM510.570667 607.530667a11.136 11.136 0 1 1-11.434667 19.104 11.136 11.136 0 0 1 11.434667-19.093334z" fill="#B2E8E4" p-id="6430"></path><path d="M314.752 548.181333c0 5.696-4.362667 10.304-9.728 10.304-5.376 0-9.728-4.608-9.728-10.304s4.352-10.314667 9.728-10.314666c5.365333 0 9.728 4.618667 9.728 10.314666zM364.768 558.485333c0 5.696-4.362667 10.314667-9.728 10.314667-5.376 0-9.728-4.618667-9.728-10.314667s4.352-10.304 9.728-10.304c5.365333 0 9.728 4.608 9.728 10.304zM369.130667 527.552c0 5.696-4.352 10.314667-9.728 10.314667s-9.728-4.618667-9.728-10.314667c0-5.685333 4.362667-10.304 9.728-10.304 5.376 0 9.728 4.618667 9.728 10.304zM335.584 524.682667c0 4.117333-3.146667 7.466667-7.04 7.466666-3.893333 0-7.04-3.349333-7.04-7.466666 0-4.128 3.146667-7.466667 7.04-7.466667 3.893333 0 7.04 3.338667 7.04 7.466667zM396.778667 545.333333c0 4.128-3.157333 7.466667-7.04 7.466667-3.893333 0-7.04-3.338667-7.04-7.466667 0-4.117333 3.146667-7.466667 7.04-7.466666 3.882667 0 7.04 3.349333 7.04 7.466666zM396.778667 517.216c0 4.117333-3.157333 7.466667-7.04 7.466667-3.893333 0-7.04-3.349333-7.04-7.466667 0-4.128 3.146667-7.466667 7.04-7.466667 3.882667 0 7.04 3.338667 7.04 7.466667zM426.496 527.552c0 3.04-2.314667 5.493333-5.173333 5.493333-2.869333 0-5.184-2.453333-5.184-5.493333 0-3.029333 2.325333-5.493333 5.184-5.493333s5.173333 2.453333 5.173333 5.493333zM412.501333 498.4c0 3.029333-2.325333 5.482667-5.184 5.482667s-5.173333-2.453333-5.173333-5.482667c0-3.04 2.314667-5.493333 5.173333-5.493333s5.184 2.453333 5.184 5.493333zM333.717333 563.306667c0 3.029333-2.314667 5.493333-5.173333 5.493333s-5.184-2.453333-5.184-5.493333c0-3.029333 2.314667-5.493333 5.184-5.493334 2.858667 0 5.173333 2.453333 5.173333 5.493334zM293.685333 586.208c0 3.029333-2.314667 5.493333-5.173333 5.493333s-5.184-2.453333-5.184-5.493333c0-3.029333 2.325333-5.493333 5.184-5.493333s5.173333 2.453333 5.173333 5.493333zM371.733333 492.906667c0 3.029333-2.325333 5.493333-5.184 5.493333-2.869333 0-5.184-2.453333-5.184-5.493333 0-3.04 2.314667-5.493333 5.184-5.493334 2.858667 0 5.173333 2.453333 5.173334 5.493334zM335.584 588.693333c0 4.128-3.146667 7.466667-7.04 7.466667-3.893333 0-7.04-3.338667-7.04-7.466667 0-4.117333 3.146667-7.466667 7.04-7.466666 3.893333 0 7.04 3.349333 7.04 7.466666z" fill="#C42218" p-id="6431"></path><path d="M211.178667 249.024a16 16 0 0 1 4.789333 22.112c-7.146667 11.093333-25.941333 51.445333-18.208 95.424a16 16 0 0 1-31.52 5.546667c-9.6-54.688 13.12-103.253333 22.826667-118.293334a16 16 0 0 1 22.112-4.789333z" fill="#FC5D52" p-id="6432"></path><path d="M857.834667 532.149333c-20.341333 85.333333-139.104 216.117333-199.36 270.154667-81.962667-14.293333-236.234667-60.373333-197.482667-130.421333 38.752-70.058667 23.2-145.685333 0-177.002667-28.992-39.125333-83.584-124.512-16.32-136.885333 57.994667-10.666667 110.101333 64.224 116.928 97.770666 68.938667-132.288 171.413333-195.626667 245.930667-143.466666 74.528 52.16 75.136 115.701333 50.304 219.84z" fill="#F63D31" p-id="6433"></path><path d="M665.024 825.098667l-10.197333-1.781334c-41.962667-7.317333-103.317333-22.858667-149.930667-46.250666-23.018667-11.541333-44.949333-26.218667-58.272-44.853334-6.88-9.610667-11.84-20.810667-12.896-33.418666-1.066667-12.736 1.994667-25.290667 8.597333-37.237334a167.370667 167.370667 0 0 0 20.608-91.392c-1.749333-28.512-10.496-50.986667-19.082666-62.581333-14.602667-19.701333-37.418667-53.269333-47.434667-84.693333-4.938667-15.466667-8.042667-34.186667-1.621333-51.285334 7.2-19.178667 23.957333-30.528 46.016-34.592 39.434667-7.253333 73.770667 14.890667 96.746666 38.368 10.058667 10.261333 19.029333 21.866667 26.325334 33.493334 31.637333-50.336 68.746667-89.237333 107.701333-112.362667 48.64-28.864 102.24-33.845333 148.181333-1.685333 41.141333 28.8 63.669333 62.336 71.178667 104.128 7.2 40.117333 0.128 85.802667-12.352 138.133333-11.36 47.637333-48.874667 104.853333-88.757333 155.136-40.501333 51.04-86.08 98.133333-117.109334 125.952l-7.701333 6.922667z m-89.461333-394.421334c68.266667-114.997333 162.325333-167.125333 231.968-118.378666 74.528 52.16 75.136 115.701333 50.304 219.84-20.341333 85.333333-139.104 216.128-199.36 270.165333-81.962667-14.293333-236.234667-60.373333-197.482667-130.421333 38.752-70.058667 23.2-145.685333 0-176.992-28.992-39.136-83.584-124.522667-16.32-136.896 45.6-8.384 87.552 36.128 106.730667 71.829333 5.205333 9.706667 8.746667 18.773333 10.197333 25.930667 4.512-8.661333 9.173333-17.024 13.962667-25.077334z" fill="#840808" p-id="6434"></path><path d="M637.152 770.293333C697.386667 716.266667 816.16 585.493333 836.512 500.16c16.256-68.234667 21.6-119.029333 2.410667-160.618667 42.624 47.296 39.594667 105.866667 18.912 192.618667-20.341333 85.333333-139.114667 216.117333-199.36 270.154667-69.6-12.138667-191.338667-47.189333-202.752-100.384 40.426667 35.317333 126.912 58.88 181.429333 68.373333z m-93.344-353.205333a182.293333 182.293333 0 0 0-12.426667-16.746667c4.490667 8.746667 7.552 16.874667 8.885334 23.413334 1.173333-2.24 2.346667-4.458667 3.541333-6.666667z m-106.421333 42.709333c3.285333 5.472 6.677333 10.773333 10.016 15.786667a88.896 88.896 0 0 0-7.744-12.693333l-2.272-3.093334z" fill="#D22B20" p-id="6435"></path><path d="M420.928 655.861333l-34.186667 26.954667c-51.68 51.861333 42.421333 121.952 95.925334 150.517333 44.544 24.618667 139.381333 64.618667 175.989333 36.106667 3.061333-2.378667 5.184-5.706667 6.933333-9.173333l17.941334-35.381334a32 32 0 0 0-12-41.856L457.290667 653.6a32 32 0 0 0-36.362667 2.261333z" fill="#D7FAF7" p-id="6436"></path><path d="M372.533333 666.858667l35.2-27.754667a53.333333 53.333333 0 0 1 60.586667-3.765333L682.56 764.768a53.333333 53.333333 0 0 1 20 69.76l-17.941333 35.381333c-2.24 4.426667-6.08 11.093333-12.853334 16.362667-14.549333 11.328-32.938667 14.496-49.973333 14.346667-17.333333-0.149333-36.021333-3.733333-53.930667-8.768-35.797333-10.058667-72.117333-26.922667-95.381333-39.776-27.872-14.890667-67.253333-41.002667-93.386667-71.338667-13.024-15.125333-24.426667-33.194667-27.733333-53.024-3.562667-21.312 2.645333-42.272 20.266667-59.946667l0.896-0.906666zM482.666667 833.333333c44.533333 24.618667 139.381333 64.618667 175.989333 36.106667 3.061333-2.378667 5.184-5.706667 6.933333-9.173333l17.941334-35.381334a32 32 0 0 0-12-41.856L457.290667 653.6a32 32 0 0 0-36.362667 2.261333l-34.186667 26.954667c-51.68 51.861333 42.421333 121.952 95.925334 150.506667z" fill="#81D5CE" p-id="6437"></path><path d="M425.621333 665.322667c17.738667-7.712 36.298667-3.242667 43.861334-0.096a16 16 0 1 1-12.309334 29.546666 28.501333 28.501333 0 0 0-8-1.642666c-3.893333-0.266667-7.658667 0.181333-10.794666 1.546666-3.36 1.450667-8.149333 5.088-13.386667 10.272-4.970667 4.928-9.173333 10.101333-11.381333 13.12a16 16 0 0 1-25.888-18.816c3.136-4.298667 8.458667-10.794667 14.752-17.034666 6.026667-5.973333 14.229333-13.013333 23.146666-16.896z" fill="#FFFFFF" p-id="6438"></path><path d="M632 861.301333a8 8 0 1 1-16 0 8 8 0 0 1 16 0zM637.664 833.632a8 8 0 1 1-16 0 8 8 0 0 1 16 0zM658.005333 844.448a5.194667 5.194667 0 1 1-10.389333 0 5.194667 5.194667 0 0 1 10.389333 0zM580.053333 845.301333a8 8 0 1 1-16 0 8 8 0 0 1 16 0zM576.672 810.304a8 8 0 1 1-16 0 8 8 0 0 1 16 0zM515.338667 810.304a8 8 0 1 1-16 0 8 8 0 0 1 16 0zM554.101333 829.973333a11.669333 11.669333 0 1 1-23.338666 0 11.669333 11.669333 0 0 1 23.338666 0zM610.336 833.632a11.669333 11.669333 0 1 1-23.338667 0 11.669333 11.669333 0 0 1 23.338667 0z" fill="#B2E8E4" p-id="6439"></path><path d="M717.717333 331.093333a16 16 0 0 1-5.482666 21.962667c-11.242667 6.741333-43.52 32.117333-71.573334 74.453333a16 16 0 0 1-26.666666-17.685333c30.613333-46.197333 66.346667-74.954667 81.770666-84.213333a16 16 0 0 1 21.952 5.493333z" fill="#FC5D52" p-id="6440"></path><path d="M702.336 641.333333c0 8.106667-6.186667 14.666667-13.834667 14.666667-7.637333 0-13.834667-6.570667-13.834666-14.666667 0-8.106667 6.186667-14.666667 13.834666-14.666666 7.637333 0 13.834667 6.570667 13.834667 14.666666zM758.666667 641.333333c0 8.106667-6.186667 14.666667-13.834667 14.666667-7.637333 0-13.834667-6.570667-13.834667-14.666667 0-8.106667 6.186667-14.666667 13.834667-14.666666 7.637333 0 13.834667 6.570667 13.834667 14.666666zM825.664 566.666667c0 8.106667-6.186667 14.666667-13.834667 14.666666-7.637333 0-13.824-6.570667-13.824-14.666666 0-8.106667 6.186667-14.666667 13.824-14.666667 7.648 0 13.834667 6.570667 13.834667 14.666667zM730.997333 599.626667c0 5.866667-4.48 10.624-10.026666 10.624-5.525333 0-10.016-4.757333-10.016-10.624s4.48-10.624 10.026666-10.624c5.536 0 10.026667 4.757333 10.026667 10.624zM801.664 610.24c0 5.877333-4.48 10.634667-10.026667 10.634667-5.525333 0-10.016-4.757333-10.016-10.624s4.48-10.624 10.026667-10.624c5.536 0 10.026667 4.757333 10.026667 10.624zM778.709333 566.666667c0 5.866667-4.48 10.624-10.026666 10.624-5.525333 0-10.016-4.757333-10.016-10.624s4.48-10.624 10.026666-10.624c5.525333 0 10.016 4.757333 10.016 10.624zM840.405333 519.808c0 4.32-3.306667 7.818667-7.36 7.818667-4.074667 0-7.381333-3.498667-7.381333-7.818667 0-4.309333 3.306667-7.808 7.370667-7.808 4.074667 0 7.36 3.498667 7.36 7.808zM671.402667 697.770667c0 4.309333-3.306667 7.808-7.36 7.808-4.074667 0-7.370667-3.498667-7.370667-7.808 0-4.309333 3.296-7.808 7.36-7.808 4.074667 0 7.370667 3.498667 7.370667 7.808zM738.368 544.192c0 4.309333-3.306667 7.808-7.36 7.808-4.074667 0-7.370667-3.498667-7.370667-7.808 0-4.32 3.296-7.818667 7.36-7.818667 4.074667 0 7.370667 3.498667 7.370667 7.818667zM727.338667 689.962667c0 5.866667-4.490667 10.624-10.026667 10.624-5.536 0-10.026667-4.757333-10.026667-10.624s4.490667-10.624 10.026667-10.624c5.536 0 10.026667 4.746667 10.026667 10.624z" fill="#C42218" p-id="6441"></path></svg>