<svg t="1733987952789" class="icon" viewBox="0 0 1024 1024" version="1.1" xmlns="http://www.w3.org/2000/svg" p-id="6043" width="64" height="64"><path d="M685.482667 708.224c-20.629333 36.266667-82.848 79.306667-111.370667 96.298667-163.989333-33.525333-207.253333-159.274667-208.373333-217.962667 112.928-5.589333 77.653333-139.125333 45.898666-205.184 84.16-4.170667 57.354667-108.746667 33.44-160.522667 63.968-2.101333 52.170667-96.469333 38.282667-143.402666 18.613333 7.530667 59.210667 36.586667 72.661333 92.522666 13.450667 55.936 50.869333 56.661333 67.893334 50.026667-42.485333 198.613333 55.936 185.92 110.464 154.730667-88.874667 167.808-16.448 197.941333 30.869333 192.042666-42.218667 10.101333-53.973333 96.117333-79.765333 141.450667z" fill="#536704" p-id="6044"></path><path d="M585.024 822.848a21.333333 21.333333 0 0 1-15.189333 2.570667c-175.893333-35.957333-224.149333-172.138667-225.429334-238.442667a21.333333 21.333333 0 0 1 20.266667-21.717333c23.786667-1.173333 36.608-8.768 44.032-17.568 7.872-9.344 12.341333-23.264 12.917333-41.706667 1.173333-37.397333-13.973333-83.669333-29.205333-115.370667a21.333333 21.333333 0 0 1 18.165333-30.549333c16.256-0.8 24.106667-6.08 28.48-11.562667 4.949333-6.186667 8.149333-16.021333 8.501334-30.069333 0.714667-28.426667-10.496-64.042667-21.856-88.629333a21.333333 21.333333 0 0 1 18.666666-30.272c9.962667-0.32 15.178667-3.829333 18.773334-8.458667 4.309333-5.546667 7.637333-14.613333 9.066666-27.466667 2.88-25.770667-2.773333-58.005333-9.312-80.096a21.333333 21.333333 0 0 1 28.458667-25.834666c23.808 9.632 70.069333 43.52 85.408 107.306666 5.632 23.434667 15.136 31.36 21.12 34.250667 6.837333 3.296 14.165333 2.496 18.293333 0.896a21.333333 21.333333 0 0 1 28.586667 24.341333c-10.346667 48.362667-11.648 81.941333-8.106667 104.586667 3.488 22.357333 11.338667 32.245333 18.101334 36.842667 7.093333 4.832 17.130667 6.634667 30.165333 4.650666 12.981333-1.973333 26.848-7.466667 38.858667-14.336a21.333333 21.333333 0 0 1 29.44 28.501334c-44.074667 83.210667-43.445333 124.32-35.146667 142.186666 7.146667 15.338667 24.714667 21.173333 44.522667 18.698667a21.333333 21.333333 0 0 1 7.605333 41.92c-3.754667 0.896-8.554667 3.84-14.378667 11.818667-5.856 8.021333-11.306667 19.168-16.832 32.906666-3.712 9.216-7.093333 18.634667-10.602666 28.416-1.781333 4.949333-3.594667 9.984-5.493334 15.146667-5.429333 14.698667-11.498667 29.994667-18.88 42.965333-12.437333 21.866667-35.914667 43.808-57.92 61.461334a570.208 570.208 0 0 1-61.077333 42.613333z m153.077333-235.413333c-12.192 17.056-21.141333 41.952-29.973333 66.517333-7.082667 19.733333-14.090667 39.242667-22.645333 54.272-20.629333 36.266667-82.848 79.306667-111.370667 96.298667-146.208-29.898667-196.448-133.077333-206.421333-196.693334a169.013333 169.013333 0 0 1-1.546667-13.066666 139.306667 139.306667 0 0 1-0.405333-8.202667c102.133333-5.056 83.04-114.752 54.976-184.554667a344.181333 344.181333 0 0 0-9.066667-20.629333c8.256-0.416 15.456-1.792 21.685333-3.989333 49.6-17.525333 38.250667-87.189333 20.298667-135.84a284.554667 284.554667 0 0 0-8.554667-20.693334c8.234667-0.266667 15.221333-2.069333 21.098667-5.098666 31.765333-16.384 31.477333-68.661333 23.914667-109.888a278.4 278.4 0 0 0-6.730667-28.416c6.656 2.698667 16.106667 8.138667 26.144 16.576 18.026667 15.157333 37.877333 40 46.517333 75.946666 8.96 37.205333 28.501333 49.984 45.610667 52.416a45.248 45.248 0 0 0 22.293333-2.378666 589.450667 589.450667 0 0 0-4.512 23.210666c-24.736 143.52 33.717333 160.138667 84.341334 144.832a150.165333 150.165333 0 0 0 30.613333-13.322666 593.493333 593.493333 0 0 0-15.146667 30.613333c-48.373333 105.610667-23.253333 146.698667 11.008 158.325333 11.456 3.893333 23.925333 4.48 35.018667 3.093334-10.784 2.592-19.594667 10.133333-27.146667 20.682666z" fill="#676E0B" p-id="6045"></path><path d="M533.866667 234.88a10.666667 10.666667 0 0 1 12.586666 8.32c14.645333 71.925333 44.469333 240.053333 45.546667 334.005333a10.666667 10.666667 0 1 1-21.333333 0.245334c-1.056-91.658667-30.432-257.92-45.12-329.994667a10.666667 10.666667 0 0 1 8.32-12.586667z" fill="#617807" p-id="6046"></path><path d="M783.232 862.005333c-98.666667 0-216 0-261.333333 11.989334-32-187.989333 21.781333-280.437333 45.333333-307.989334 24.533333 78.933333 74.218667-21.333333 96-81.344 36.266667 69.333333 120.885333 17.344 158.666667-17.322666 10.666667 25.322667 36.693333 22.72 64 17.322666 23.669333-4.661333 72-2.666667 94.666666 0-60.8 35.2-51.114667 94.677333-38.666666 120-101.333333 29.866667-92.885333 90.666667-76 117.333334-122.666667 21.333333-106.218667 102.229333-82.666667 140.010666z" fill="#62780A" p-id="6047"></path><path d="M510.357333 891.946667a21.333333 21.333333 0 0 1-9.493333-14.368c-32.906667-193.386667 21.952-292.448 50.154667-325.44a21.333333 21.333333 0 0 1 36.586666 7.530666c1.802667 5.792 3.509333 9.610667 4.874667 12.042667 1.92-1.632 4.32-4.106667 7.146667-7.626667 15.882667-19.808 32.789333-57.045333 43.552-86.698666a21.333333 21.333333 0 0 1 38.954666-2.613334c6.784 12.981333 14.72 18.56 22.346667 20.981334 8.288 2.634667 18.890667 2.368 31.68-1.28 25.941333-7.392 53.674667-26.666667 71.317333-42.858667a21.333333 21.333333 0 0 1 34.08 7.434667c1.354667 3.221333 2.741333 4.586667 3.690667 5.290666 1.056 0.778667 2.773333 1.621333 5.845333 2.133334 7.008 1.141333 16.853333-0.010667 30.677334-2.741334 14.176-2.794667 34.08-3.402667 52.138666-3.146666 18.453333 0.256 36.949333 1.461333 49.152 2.890666a21.333333 21.333333 0 0 1 8.192 39.648c-24.736 14.325333-33.813333 32.394667-36.426666 48.64-2.794667 17.333333 1.589333 34.058667 6.218666 43.498667a21.333333 21.333333 0 0 1-13.12 29.866667c-47.029333 13.866667-63.2 33.216-68.416 46.965333-5.450667 14.389333-1.472 29.205333 4.416 38.485333a21.333333 21.333333 0 0 1-14.368 32.426667c-56.789333 9.888-74.282667 31.925333-79.392 48.96-5.824 19.424 1.088 42.581333 11.168 58.741333a21.333333 21.333333 0 0 1-18.101333 32.618667c-49.418667 0-103.061333 0-149.994667 1.493333-47.722667 1.514667-85.941333 4.522667-105.877333 9.802667a21.333333 21.333333 0 0 1-17.002667-2.677333z m78.869334-317.973334l0.064-0.032a0.426667 0.426667 0 0 1-0.064 0.021334z m194.005333 288.021334a114.314667 114.314667 0 0 1-10.336-21.333334c-13.76-37.973333-10.442667-91.808 71.2-113.877333 6.72-1.813333 13.973333-3.424 21.802667-4.778667a67.861333 67.861333 0 0 1-8.448-20.149333c-6.624-27.413333 2.005333-65.674667 64.138666-90.24 6.218667-2.464 12.970667-4.789333 20.309334-6.944a91.125333 91.125333 0 0 1-6.912-20.213333c-5.098667-23.093333-3.594667-54.56 20.725333-80.426667 6.528-6.944 14.72-13.493333 24.853333-19.370667a451.776 451.776 0 0 0-33.066666-2.368c-21.930667-0.853333-46.666667-0.565333-61.6 2.368-18.88 3.733333-37.12 6.122667-50.133334-1.109333-5.813333-3.232-10.570667-8.384-13.866666-16.213333-4.906667 4.490667-10.592 9.28-16.874667 14.069333-36.181333 27.573333-91.701333 54.773333-126.602667 23.413333-5.653333-5.098667-10.773333-11.733333-15.189333-20.16-2.784 7.68-6.026667 16.021333-9.621333 24.554667-20.96 49.856-53.728 106.528-76.138667 78.378667-3.733333-4.693333-7.178667-11.754667-10.24-21.6-4.192 4.906667-9.344 11.872-14.794667 21.056-24.010667 40.458667-53.909333 124.128-33.845333 265.770666 0.981333 6.933333 2.08 13.973333 3.306667 21.184a192.042667 192.042667 0 0 1 20.949333-4.074666c49.28-7.189333 136.170667-7.861333 216.010667-7.925334h24.373333z" fill="#676E0B" p-id="6048"></path><path d="M896.362667 522.218667a10.666667 10.666667 0 0 1-5.248 14.144C796.266667 579.84 680.885333 659.893333 617.322667 774.506667a10.666667 10.666667 0 1 1-18.645334-10.346667c66.570667-120.053333 186.389333-202.666667 283.541334-247.189333a10.666667 10.666667 0 0 1 14.144 5.248z" fill="#738B11" p-id="6049"></path><path d="M348 884c87.466667-19.2 214.218667-24.885333 266.666667-25.333333 12.8-129.066667-41.781333-252-70.666667-297.333334-40.533333 57.6-81.781333-38.218667-97.333333-93.333333-59.733333 60.8-132.448 18.218667-161.333334-10.666667-14.666667 19.338667-33.248 39.978667-82.666666 25.333334-43.786667-12.970667-94.666667-3.552-117.333334 0 56.533333 34.133333 77.781333 115.552 70.666667 152 112 23.466667 92.885333 89.781333 69.333333 120 112-4.266667 128.448 84.448 122.666667 129.333333z" fill="#848C13" p-id="6050"></path><path d="M635.893333 860.768a21.333333 21.333333 0 0 1-21.045333 19.232c-52.085333 0.437333-177.034667 6.122667-262.272 24.832a21.333333 21.333333 0 0 1-25.738667-23.552c2.464-19.136-0.064-47.082667-13.984-68.906667-12.853333-20.138667-37.365333-38.272-86.709333-36.384a21.333333 21.333333 0 0 1-17.642667-34.432c9.834667-12.608 16.181333-29.834667 12.405334-43.872-3.232-11.968-16.725333-31.125333-69.28-42.133333a21.333333 21.333333 0 0 1-16.565334-24.970667c2.517333-12.928 0.192-38.112-10.378666-64.96-10.410667-26.453333-27.392-50.816-50.378667-64.693333a21.333333 21.333333 0 0 1 7.722667-39.338667l4.565333-0.736c24-3.882667 76.021333-12.309333 122.133333 1.354667 21.312 6.314667 32.768 4.16 39.488 1.109333 7.381333-3.349333 12.949333-9.418667 20.128-18.88a21.333333 21.333333 0 0 1 32.074667-2.186666c12.426667 12.426667 34.410667 27.712 58.752 33.248 22.986667 5.226667 48.245333 2.026667 72.277333-22.453334a21.333333 21.333333 0 0 1 35.754667 9.162667c7.573333 26.826667 20.938667 61.6 35.978667 82.122667 7.957333 10.858667 13.141333 13.226667 14.432 13.461333l0.074666 0.010667h0.021334a4.565333 4.565333 0 0 0 0.789333-0.352c1.333333-0.746667 4.170667-2.88 8.053333-8.394667a21.333333 21.333333 0 0 1 35.445334 0.810667c30.485333 47.850667 87.328 175.552 73.898666 310.901333zM555.52 581.173333c29.653333 55.466667 70.4 164.117333 59.157333 277.493334-48.213333 0.405333-159.221333 5.248-244.778666 20.938666-7.509333 1.386667-14.826667 2.848-21.888 4.394667a131.413333 131.413333 0 0 0 0.885333-22.005333c-1.749333-42.378667-23.210667-99.04-98.346667-106.624a181.952 181.952 0 0 0-25.205333-0.704 91.893333 91.893333 0 0 0 12.426667-21.429334c13.578667-33.226667 8.213333-79.722667-81.76-98.570666 6.058667-31.018667-8.437333-94.634667-47.754667-133.930667A120.768 120.768 0 0 0 85.333333 482.666667l4.32-0.693334a592.213333 592.213333 0 0 1 25.76-3.690666c25.130667-2.944 57.792-4.341333 87.253334 4.384 35.306667 10.453333 54.88 2.912 68.522666-9.312 5.450667-4.885333 9.962667-10.506667 14.144-16.021334 4.448 4.448 9.92 9.216 16.245334 13.877334 30.709333 22.709333 81.066667 42.986667 127.264 11.754666a116.384 116.384 0 0 0 17.824-14.965333c1.973333 7.008 4.373333 14.677333 7.125333 22.602667 16.106667 46.325333 44.533333 101.504 74.474667 85.813333 5.226667-2.730667 10.485333-7.616 15.733333-15.082667 3.52 5.514667 7.402667 12.16 11.509333 19.84z" fill="#676E0B" p-id="6051"></path><path d="M163.04 500.533333a10.666667 10.666667 0 0 1 13.088-7.498666c90.453333 24.576 173.866667 79.168 241.642667 138.432 67.818667 59.306667 120.64 123.893333 149.866666 169.44a10.666667 10.666667 0 1 1-17.952 11.52c-28.106667-43.797333-79.605333-106.869333-145.962666-164.906667-66.389333-58.048-146.976-110.464-233.184-133.888a10.666667 10.666667 0 0 1-7.498667-13.098667z" fill="#9BA517" p-id="6052"></path><path d="M756.533333 674.474667a97.152 97.152 0 1 1-194.304 0 97.152 97.152 0 0 1 194.304 0z" fill="#9F2308" p-id="6053"></path><path d="M777.866667 674.474667c0 65.44-53.045333 118.485333-118.485334 118.485333-65.44 0-118.485333-53.045333-118.485333-118.485333 0-65.44 53.045333-118.485333 118.485333-118.485334 65.44 0 118.485333 53.045333 118.485334 118.485334zM659.381333 771.626667a97.152 97.152 0 1 0 0-194.304 97.152 97.152 0 0 0 0 194.304z" fill="#741602" p-id="6054"></path><path d="M598.656 771.626667a97.152 97.152 0 1 1-194.304 0 97.152 97.152 0 0 1 194.304 0z" fill="#BF2200" p-id="6055"></path><path d="M619.989333 771.626667c0 65.44-53.045333 118.485333-118.485333 118.485333-65.429333 0-118.485333-53.045333-118.485333-118.485333 0-65.429333 53.056-118.485333 118.485333-118.485334 65.44 0 118.485333 53.056 118.485333 118.485334z m-118.485333 97.152a97.152 97.152 0 1 0 0-194.304 97.152 97.152 0 0 0 0 194.304z" fill="#8D1D05" p-id="6056"></path><path d="M790.666667 800.586667c0 62.933333-53.856 113.952-120.288 113.952-66.442667 0-120.298667-51.018667-120.298667-113.952 0-62.933333 53.866667-113.962667 120.298667-113.962667 66.432 0 120.288 51.018667 120.288 113.962667z" fill="#DF2D06" p-id="6057"></path><path d="M812 800.586667c0 75.786667-64.512 135.285333-141.621333 135.285333-77.12 0-141.632-59.498667-141.632-135.285333 0-75.797333 64.512-135.296 141.632-135.296s141.621333 59.498667 141.621333 135.296zM670.378667 914.538667c66.432 0 120.288-51.018667 120.288-113.952 0-62.933333-53.856-113.962667-120.288-113.962667-66.442667 0-120.298667 51.018667-120.298667 113.962667 0 62.933333 53.866667 113.952 120.298667 113.952z" fill="#B32303" p-id="6058"></path><path d="M688.32 754.794667a50.048 50.048 0 1 1-100.096 0 50.048 50.048 0 0 1 100.096 0z" fill="#FC4C14" p-id="6059"></path><path d="M537.888 742.581333a53.333333 53.333333 0 1 1-106.666667 0 53.333333 53.333333 0 0 1 106.666667 0z" fill="#D6300C" p-id="6060"></path><path d="M640 741.333333a16 16 0 1 1-32 0 16 16 0 0 1 32 0z" fill="#FFFFFF" p-id="6061"></path><path d="M488 725.333333a16 16 0 1 1-32 0 16 16 0 0 1 32 0z" fill="#FF8166" p-id="6062"></path></svg>