<svg t="1735034146780" class="icon" viewBox="0 0 1024 1024" version="1.1" xmlns="http://www.w3.org/2000/svg" p-id="4596" width="64" height="64"><path d="M543.808 241.386667a103.04 103.04 0 0 1-103.04 103.04 103.04 103.04 0 1 1 0-206.090667c56.906667 0 103.04 46.133333 103.04 103.04z" fill="#D6FDFF" p-id="4597"></path><path d="M565.141333 241.386667c0 68.693333-55.68 124.373333-124.373333 124.373333s-124.373333-55.68-124.373333-124.373333 55.68-124.384 124.373333-124.384 124.373333 55.68 124.373333 124.373333z m-124.373333 103.04a103.04 103.04 0 1 0 0-206.090667 103.04 103.04 0 0 0 0 206.08z" fill="#32CDD5" p-id="4598"></path><path d="M456.938667 343.157333c49.226667-7.754667 86.869333-50.368 86.869333-101.781333 0-56.906667-46.133333-103.04-103.04-103.04a102.592 102.592 0 0 0-48.170667 11.925333c5.269333-0.832 10.666667-1.258667 16.170667-1.258666 56.906667 0 103.04 46.133333 103.04 103.04a103.04 103.04 0 0 1-54.869333 91.114666z" fill="#C2EDF0" p-id="4599"></path><path d="M405.653333 194.666667a17.664 17.664 0 1 1-35.328 0 17.664 17.664 0 0 1 35.338667 0z" fill="#FFFFFF" p-id="4600"></path><path d="M541.194667 273.578667c200.938667 41.216 272.64 304.842667 283.370666 431.498666l-598.933333 25.76c21.461333-169.6 114.624-498.474667 315.562667-457.258666z" fill="#3AAAFB" p-id="4601"></path><path d="M847.701333 725.44l-1.877333-22.165333c-5.546667-65.450667-26.72-165.834667-72.618667-255.690667-45.824-89.706667-118.24-172.448-227.733333-194.901333-56.874667-11.669333-106.453333 3.125333-148.053333 33.973333-40.928 30.357333-73.92 76.021333-100.234667 126.656-52.672 101.290667-81.813333 228.608-92.725333 314.848l-3.178667 25.066667 646.421333-27.797334z m-23.136-20.373333l-598.933333 25.770666a917.333333 917.333333 0 0 1 2.976-21.482666c26.250667-174.293333 119.84-475.306667 312.586667-435.776 190.282667 39.04 264.672 277.493333 281.141333 410.24 0.917333 7.434667 1.664 14.538667 2.24 21.258666z" fill="#0B6BB2" p-id="4602"></path><path d="M432.544 324a16 16 0 0 1-1.888 22.549333c-28 23.68-92.842667 99.914667-118.08 208.085334a16 16 0 1 1-31.168-7.264c27.029333-115.84 96.138667-197.813333 128.586667-225.258667a16 16 0 0 1 22.549333 1.888z" fill="#6ED3FF" p-id="4603"></path><path d="M232.554667 685.162667a977.493333 977.493333 0 0 0-6.933334 45.674666l298.869334-12.853333-291.946667-32.821333z m472.768 25.045333l119.253333-5.130667c-10.741333-126.656-82.453333-390.282667-283.381333-431.498666a164.714667 164.714667 0 0 0-44.608-3.178667c173.952 69.866667 211.498667 306.24 208.736 439.808z" fill="#2697E9" p-id="4604"></path><path d="M539.402667 387.392a10.666667 10.666667 0 0 1-3.466667 14.688c-27.797333 17.173333-60.992 50.933333-91.637333 87.082667-30.432 35.904-57.525333 73.173333-73.109334 96.437333a10.666667 10.666667 0 1 1-17.728-11.872c15.978667-23.84 43.552-61.76 74.56-98.357333 30.805333-36.341333 65.824-72.362667 96.693334-91.445334a10.666667 10.666667 0 0 1 14.688 3.466667zM634.069333 435.392a10.666667 10.666667 0 0 1-3.466666 14.688c-27.786667 17.173333-54.826667 45.269333-79.125334 75.530667-23.072 28.725333-43.136 58.709333-58.666666 81.92l-2.293334 3.413333a10.666667 10.666667 0 1 1-17.717333-11.882667l2.368-3.541333c15.488-23.125333 36.010667-53.792 59.68-83.264 24.8-30.890667 53.653333-61.226667 84.533333-80.32a10.666667 10.666667 0 0 1 14.688 3.456z" fill="#198FE5" p-id="4605"></path><path d="M307.669333 499.221333a10.666667 10.666667 0 0 1 11.104-10.208c44.277333 1.856 112.970667 21.333333 177.269334 46.453334 40.682667 15.893333 80.618667 34.432 112.256 52.874666 7.594667-11.306667 14.634667-21.184 22.88-30.485333 14.154667-15.968 31.701333-30.154667 61.546666-48.597333a10.666667 10.666667 0 0 1 11.210667 18.144c-28.832 17.824-44.512 30.752-56.8 44.608-7.349333 8.298667-13.546667 16.96-20.650667 27.52 10.496 6.869333 19.605333 13.642667 26.933334 20.170666a10.666667 10.666667 0 1 1-14.186667 15.925334c-6.549333-5.834667-14.837333-11.978667-24.533333-18.314667-1.738667 2.645333-3.573333 5.408-5.514667 8.288a10.666667 10.666667 0 1 1-17.717333-11.872c1.738667-2.592 3.413333-5.12 5.034666-7.573333-29.813333-17.269333-68.096-35.146667-108.224-50.816-63.818667-24.928-129.792-43.306667-170.4-45.013334a10.666667 10.666667 0 0 1-10.208-11.104z" fill="#198FE5" p-id="4606"></path><path d="M389.674667 407.914667a10.666667 10.666667 0 0 1 13.749333-6.229334c71.978667 27.104 238.389333 97.781333 324.021333 162.816a10.666667 10.666667 0 0 1-12.906666 16.992c-82.890667-62.954667-246.613333-132.725333-318.634667-159.84a10.666667 10.666667 0 0 1-6.229333-13.738666zM483.157333 352.885333a10.666667 10.666667 0 0 1 13.952-5.728c28.906667 12.106667 73.685333 32.448 114.293334 54.250667 20.298667 10.890667 39.733333 22.250667 55.68 33.205333 15.594667 10.72 29.034667 21.845333 36.117333 32.469334a10.666667 10.666667 0 0 1-17.749333 11.84c-4.64-6.976-15.072-16.149333-30.464-26.730667-15.04-10.346667-33.738667-21.290667-53.674667-32-39.861333-21.386667-84-41.450667-112.437333-53.354667a10.666667 10.666667 0 0 1-5.717334-13.952z" fill="#198FE5" p-id="4607"></path><path d="M156.992 756.597333a64.405333 64.405333 0 0 1 64.405333-64.405333h618.261334a64.405333 64.405333 0 1 1 0 128.810667H221.397333a64.405333 64.405333 0 0 1-64.405333-64.405334z" fill="#FF5E8E" p-id="4608"></path><path d="M221.397333 670.858667h618.261334a85.738667 85.738667 0 0 1 0 171.477333H221.397333a85.738667 85.738667 0 1 1 0-171.477333z m0 21.333333a64.405333 64.405333 0 1 0 0 128.810667h618.261334a64.405333 64.405333 0 1 0 0-128.810667H221.397333z" fill="#B91E4C" p-id="4609"></path><path d="M202.325333 797.002667a16 16 0 0 1 16-16h614.666667a16 16 0 1 1 0 32H218.325333a16 16 0 0 1-16-16z" fill="#E34172" p-id="4610"></path><path d="M481.664 705.664a16 16 0 0 1 16 16v70.005333a16 16 0 1 1-32 0v-70.005333a16 16 0 0 1 16-16zM403.658667 705.664a16 16 0 0 1 16 16v70.005333a16 16 0 1 1-32 0v-70.005333a16 16 0 0 1 16-16zM322.325333 705.664a16 16 0 0 1 16 16v70.005333a16 16 0 1 1-32 0v-70.005333a16 16 0 0 1 16-16zM258.986667 709.002667a16 16 0 0 1 16 16v69.994666a16 16 0 1 1-32 0V725.013333a16 16 0 0 1 16-16zM204.330667 719.669333a16 16 0 0 1 16 16v37.994667a16 16 0 1 1-32 0V735.68a16 16 0 0 1 16-16zM554.325333 705.664a16 16 0 0 1 16 16v70.005333a16 16 0 1 1-32 0v-70.005333a16 16 0 0 1 16-16zM636.992 705.6a16 16 0 0 1 16 16v70.005333a16 16 0 1 1-32 0V721.6a16 16 0 0 1 16-16zM705.664 705.6a16 16 0 0 1 16 16v70.005333a16 16 0 1 1-32 0V721.6a16 16 0 0 1 16-16zM787.658667 705.664a16 16 0 0 1 16 16v70.005333a16 16 0 1 1-32 0v-70.005333a16 16 0 0 1 16-16zM852.992 710.997333a16 16 0 0 1 16 16v48.672a16 16 0 1 1-32 0v-48.672a16 16 0 0 1 16-16z" fill="#FF97B6" p-id="4611"></path></svg>