<svg t="1733987886217" class="icon" viewBox="0 0 1024 1024" version="1.1" xmlns="http://www.w3.org/2000/svg" p-id="5664" width="64" height="64"><path d="M444.650667 352.373333a21.333333 21.333333 0 0 1 21.333333-21.333333h125.333333a21.333333 21.333333 0 0 1 21.333334 21.333333V895.04h-168V352.373333z" fill="#E94A3F" p-id="5665"></path><path d="M633.984 895.04a21.333333 21.333333 0 0 1-21.333333 21.333333h-168a21.333333 21.333333 0 0 1-21.333334-21.333333V352.373333a42.666667 42.666667 0 0 1 42.666667-42.666666h125.333333a42.666667 42.666667 0 0 1 42.666667 42.666666V895.04z m-168-564a21.333333 21.333333 0 0 0-21.333333 21.333333V895.04h168V352.373333a21.333333 21.333333 0 0 0-21.333334-21.333333h-125.333333z" fill="#9E2016" p-id="5666"></path><path d="M580.650667 895.04h32V352.373333a21.333333 21.333333 0 0 0-21.333334-21.333333h-32a21.333333 21.333333 0 0 1 21.333334 21.333333V895.04z" fill="#C9352B" p-id="5667"></path><path d="M677.984 550.4a21.333333 21.333333 0 0 1 21.333333-21.333333h109.333334a21.333333 21.333333 0 0 1 21.333333 21.333333v344.64h-152V550.4z" fill="#E94A3F" p-id="5668"></path><path d="M851.317333 895.04a21.333333 21.333333 0 0 1-21.333333 21.333333h-152a21.333333 21.333333 0 0 1-21.333333-21.333333V550.4a42.666667 42.666667 0 0 1 42.666666-42.666667h109.333334a42.666667 42.666667 0 0 1 42.666666 42.666667v344.64zM699.317333 529.066667a21.333333 21.333333 0 0 0-21.333333 21.333333v344.64h152V550.4a21.333333 21.333333 0 0 0-21.333333-21.333333h-109.333334z" fill="#9E2016" p-id="5669"></path><path d="M797.984 895.04h32V550.4a21.333333 21.333333 0 0 0-21.333333-21.333333h-32a21.333333 21.333333 0 0 1 21.333333 21.333333v344.64z" fill="#D33E33" p-id="5670"></path><path d="M204.650667 603.04a21.333333 21.333333 0 0 1 21.333333-21.333333h109.333333a21.333333 21.333333 0 0 1 21.333334 21.333333V895.04h-152V603.04z" fill="#E94A3F" p-id="5671"></path><path d="M377.984 895.04a21.333333 21.333333 0 0 1-21.333333 21.333333h-152a21.333333 21.333333 0 0 1-21.333334-21.333333V603.04a42.666667 42.666667 0 0 1 42.666667-42.666667h109.333333a42.666667 42.666667 0 0 1 42.666667 42.666667V895.04z m-152-313.333333a21.333333 21.333333 0 0 0-21.333333 21.333333V895.04h152V603.04a21.333333 21.333333 0 0 0-21.333334-21.333333h-109.333333z" fill="#9E2016" p-id="5672"></path><path d="M324.650667 895.04h32V603.04a21.333333 21.333333 0 0 0-21.333334-21.333333h-32a21.333333 21.333333 0 0 1 21.333334 21.333333V895.04z" fill="#D33E33" p-id="5673"></path><path d="M227.317333 595.04a10.666667 10.666667 0 0 1 10.666667 10.666667V737.706667a10.666667 10.666667 0 0 1-21.333333 0V605.706667a10.666667 10.666667 0 0 1 10.666666-10.666667zM474.816 353.514667a10.666667 10.666667 0 0 1 10.666667 10.666666v366.666667a10.666667 10.666667 0 0 1-21.333334 0V364.181333a10.666667 10.666667 0 0 1 10.666667-10.666666z" fill="#FF7D74" p-id="5674"></path><path d="M474.816 374.848a10.666667 10.666667 0 0 1 10.666667 10.666667v110.666666a10.666667 10.666667 0 0 1-21.333334 0V385.514667a10.666667 10.666667 0 0 1 10.666667-10.666667z" fill="#FF9F98" p-id="5675"></path><path d="M702.602667 545.365333a10.666667 10.666667 0 0 1 10.666666 10.666667v174.666667a10.666667 10.666667 0 0 1-21.333333 0V556.032a10.666667 10.666667 0 0 1 10.666667-10.666667z" fill="#FF7D74" p-id="5676"></path><path d="M471.989333 193.365333c-14.752 69.738667 17.461333 108.821333 52.661334 120 72.896-19.872 63.669333-84.330667 40.16-126.645333-10.464-18.848-23.829333-76.021333-16.149334-107.68-23.68 19.658667-63.008 49.717333-76.672 114.325333z" fill="#FFBE18" p-id="5677"></path><path d="M554.304 69.984a10.666667 10.666667 0 0 1 4.725333 11.562667c-3.306667 13.632-2.208 34.058667 1.408 54.261333 3.605333 20.170667 9.312 37.824 13.696 45.728 12.373333 22.272 21.674667 51.456 17.28 78.624-2.24 13.813333-8.032 27.093333-18.688 38.325333-10.634667 11.2-25.568 19.808-45.269333 25.173334a10.666667 10.666667 0 0 1-6.037333-0.128c-20.117333-6.389333-39.253333-20.725333-51.242667-43.178667-12.010667-22.506667-16.426667-52.362667-8.629333-89.194667 13.856-65.472 52.906667-97.706667 77.013333-117.610666l3.285333-2.72a10.666667 10.666667 0 0 1 12.458667-0.842667z m-18.56 34.069333c-20.832 19.008-43.722667 46.122667-53.322667 91.52-6.954667 32.906667-2.634667 57.461333 6.570667 74.730667 8.64 16.181333 21.930667 26.666667 35.946667 31.893333 15.050667-4.554667 25.365333-11.082667 32.309333-18.4 7.370667-7.765333 11.477333-16.96 13.109333-27.04 3.328-20.618667-3.733333-44.8-14.869333-64.853333-6.08-10.944-12.288-31.296-16.053333-52.341333a226.538667 226.538667 0 0 1-3.690667-35.509334z" fill="#FF7A41" p-id="5678"></path><path d="M519.552 144.501333a10.666667 10.666667 0 0 1 3.530667 14.666667c-5.002667 8.192-15.370667 30.250667-16.448 51.093333a10.666667 10.666667 0 0 1-21.301334-1.109333c1.322667-25.728 13.557333-51.306667 19.552-61.12a10.666667 10.666667 0 0 1 14.666667-3.530667z" fill="#FFDB7E" p-id="5679"></path><path d="M242.858667 477.546667c-10.389333 49.098667 12.298667 76.618667 37.088 84.48 51.328-13.984 44.832-59.370667 28.266666-89.173334-7.36-13.258667-16.768-53.514667-11.36-75.818666-16.672 13.845333-44.373333 35.008-53.994666 80.501333z" fill="#FFBE18" p-id="5680"></path><path d="M302.496 387.989333a10.666667 10.666667 0 0 1 4.714667 11.562667c-2.165333 8.938667-1.493333 22.805333 1.034666 36.906667 2.517333 14.08 6.464 26.101333 9.301334 31.221333 8.896 16 15.776 37.301333 12.522666 57.386667a53.290667 53.290667 0 0 1-13.984 28.661333c-7.957333 8.384-19.029333 14.698667-33.333333 18.602667a10.666667 10.666667 0 0 1-6.037333-0.128c-14.912-4.736-29.066667-15.36-37.909334-31.936-8.874667-16.618667-11.989333-38.421333-6.378666-64.928 9.984-47.2 38.218667-70.506667 55.264-84.565334l2.346666-1.941333a10.666667 10.666667 0 0 1 12.458667-0.853333z m-17.6 33.728c-12.874667 12.832-25.770667 30.506667-31.594667 58.026667-4.778667 22.592-1.749333 39.104 4.32 50.485333a44.373333 44.373333 0 0 0 22.634667 20.586667c9.610667-3.050667 16.064-7.253333 20.352-11.776a31.978667 31.978667 0 0 0 8.405333-17.376c2.186667-13.546667-2.453333-29.834667-10.112-43.626667-4.533333-8.149333-8.981333-22.88-11.658666-37.824a174.72 174.72 0 0 1-2.346667-18.496z" fill="#FF7A41" p-id="5681"></path><path d="M277.994667 440.437333a10.666667 10.666667 0 0 1 3.541333 14.666667c-3.381333 5.525333-10.4 20.544-11.125333 34.485333a10.666667 10.666667 0 0 1-21.301334-1.098666c0.970667-18.837333 9.856-37.365333 14.229334-44.512a10.666667 10.666667 0 0 1 14.656-3.541334z" fill="#FFDB7E" p-id="5682"></path><path d="M705.493333 410.432c-11.626667 54.933333 13.76 85.717333 41.493334 94.528 57.408-15.658667 50.144-66.432 31.626666-99.765333-8.245333-14.848-18.773333-59.882667-12.725333-84.821334-18.645333 15.488-49.632 39.168-60.394667 90.058667z" fill="#FFBE18" p-id="5683"></path><path d="M771.530667 311.317333a10.666667 10.666667 0 0 1 4.725333 11.562667c-2.485333 10.272-1.696 25.984 1.141333 41.813333 2.826667 15.786667 7.253333 29.418667 10.538667 35.317334 9.877333 17.781333 17.44 41.301333 13.866667 63.402666-1.824 11.264-6.570667 22.165333-15.317334 31.381334-8.714667 9.173333-20.874667 16.138667-36.693333 20.458666a10.666667 10.666667 0 0 1-6.037333-0.128c-16.394667-5.205333-31.957333-16.874667-41.685334-35.114666-9.76-18.282667-13.237333-42.346667-7.008-71.786667 11.072-52.362667 42.368-78.186667 61.408-93.898667l2.602667-2.165333a10.666667 10.666667 0 0 1 12.458667-0.842667z m-17.909334 33.824c-15.157333 14.592-30.816 34.965333-37.696 67.498667-5.386667 25.493333-1.994667 44.288 4.96 57.333333 6.389333 11.957333 16.106667 19.776 26.4 23.786667 11.146667-3.477333 18.688-8.341333 23.733334-13.653333 5.450667-5.749333 8.501333-12.554667 9.728-20.106667 2.517333-15.541333-2.816-34.069333-11.456-49.632-4.970667-8.928-9.92-25.248-12.906667-41.92-1.322667-7.456-2.346667-15.445333-2.762667-23.306667z" fill="#FF7A41" p-id="5684"></path><path d="M744.138667 370.005333a10.666667 10.666667 0 0 1 3.541333 14.666667c-3.84 6.282667-11.808 23.285333-12.629333 39.178667a10.666667 10.666667 0 0 1-21.301334-1.098667c1.066667-20.8 10.901333-41.312 15.722667-49.205333a10.666667 10.666667 0 0 1 14.666667-3.541334z" fill="#FFDB7E" p-id="5685"></path><path d="M273.205333 584.96c-3.690667 0.085333-10.133333 1.536-20.682666 7.285333-7.029333 3.84-13.696 5.546667-20.16 5.365334-6.389333-0.181333-11.690667-2.186667-15.957334-4.362667-2.101333-1.066667-4.042667-2.229333-5.706666-3.242667l-1.216-0.746666c-1.205333-0.746667-2.24-1.386667-3.306667-1.984-2.773333-1.578667-4.352-2.101333-5.536-2.208-2.208-0.192-4.266667 0.565333-6.293333 2.186666a16.426667 16.426667 0 0 0-4.234667 5.098667 10.666667 10.666667 0 1 1-19.2-9.301333c1.792-3.68 5.194667-8.565333 10.154667-12.501334 5.088-4.053333 12.394667-7.509333 21.397333-6.741333 5.845333 0.501333 10.666667 2.88 14.261333 4.928 1.408 0.8 2.848 1.685333 4.117334 2.453333l0.970666 0.608c1.578667 0.96 2.944 1.76 4.277334 2.453334 2.613333 1.322667 4.736 1.973333 6.869333 2.026666 2.069333 0.064 5.045333-0.416 9.354667-2.762666 12.117333-6.613333 21.984-9.685333 30.368-9.888 8.864-0.213333 15.168 2.784 19.690666 6.4-0.064-0.064-0.032-0.053333 0.106667 0.021333 0.405333 0.202667 1.738667 0.853333 4.373333 1.621333a60.693333 60.693333 0 0 0 11.68 2.133334c9.237333 0.8 18.837333-0.362667 25.952-4.608 0.352-0.213333 0.725333-0.405333 1.098667-0.565334 13.226667-5.930667 33.557333-4.522667 52.010667 14.261334a10.666667 10.666667 0 0 1-15.221334 14.954666c-12.416-12.650667-23.072-11.744-27.626666-9.941333-12.32 7.082667-26.688 8.128-38.048 7.146667a82.016 82.016 0 0 1-15.872-2.912c-4.106667-1.205333-8.650667-2.965333-11.754667-5.44-1.141333-0.917333-2.666667-1.824-5.866667-1.749334zM514.976 338.4c-4.330667 0.106667-11.509333 1.664-22.933333 7.445333-7.424 3.765333-14.357333 5.386667-20.970667 5.216a40.714667 40.714667 0 0 1-16.586667-4.224 92.693333 92.693333 0 0 1-6.08-3.2l-1.290666-0.746666c-1.312-0.746667-2.442667-1.386667-3.605334-2.005334-3.008-1.589333-4.917333-2.24-6.517333-2.357333a11.232 11.232 0 0 0-7.744 2.410667c-2.432 1.792-4.053333 4.053333-4.618667 5.152a10.666667 10.666667 0 0 1-18.912-9.877334 38.08 38.08 0 0 1 10.858667-12.448 32.533333 32.533333 0 0 1 22.101333-6.506666c5.952 0.469333 10.944 2.730667 14.805334 4.768a155.2 155.2 0 0 1 5.44 3.04c1.706667 0.96 3.2 1.781333 4.693333 2.485333 2.88 1.376 5.386667 2.112 8 2.176 2.56 0.074667 6.026667-0.501333 10.794667-2.912 12.992-6.581333 23.392-9.536 32.064-9.738667 9.12-0.213333 15.616 2.634667 20.373333 6.165334 8.746667 6.485333 28.864 9.205333 46.88-0.768 0.352-0.192 0.704-0.362667 1.066667-0.512 13.557333-5.642667 34.837333-4.522667 54.549333 14.101333a10.666667 10.666667 0 0 1-14.656 15.509333c-13.6-12.864-25.728-12.16-31.253333-10.090666-24.042667 13.013333-52.96 10.986667-69.290667-1.109334-1.354667-0.992-3.274667-2.058667-7.168-1.973333zM751.562667 533.12c-3.306667 0.096-9.301333 1.461333-19.317334 7.189333-6.784 3.882667-13.301333 5.653333-19.669333 5.472-6.293333-0.181333-11.488-2.261333-15.605333-4.458666a80.992 80.992 0 0 1-5.482667-3.264l-1.173333-0.746667c-1.141333-0.746667-2.112-1.376-3.114667-1.973333-2.645333-1.578667-4.021333-2.026667-4.928-2.101334-1.770667-0.16-3.52 0.448-5.418667 2.026667-2.026667 1.696-3.456 3.904-4 5.088a10.666667 10.666667 0 1 1-19.370666-8.96c1.685333-3.626667 4.938667-8.533333 9.706666-12.512 4.906667-4.074667 12.064-7.701333 20.992-6.890667 5.781333 0.522667 10.517333 2.986667 13.952 5.034667a134.773333 134.773333 0 0 1 4.864 3.061333c1.493333 0.96 2.773333 1.76 4.032 2.421334 2.453333 1.312 4.330667 1.898667 6.165334 1.952 1.76 0.042667 4.437333-0.362667 8.458666-2.666667 11.584-6.624 21.141333-9.781333 29.344-9.994667 8.746667-0.224 14.933333 2.890667 19.306667 6.549334-0.096-0.074667-0.074667-0.064 0.096 0.010666 0.394667 0.202667 1.6 0.810667 3.946667 1.536 2.912 0.896 6.72 1.706667 10.944 2.090667 8.682667 0.778667 17.6-0.362667 24.213333-4.501333a10.624 10.624 0 0 1 1.109333-0.608c13.034667-6.122667 32.821333-4.490667 50.496 14.378666a10.666667 10.666667 0 1 1-15.573333 14.581334c-11.712-12.501333-21.450667-11.456-25.408-9.845334-11.914667 7.178667-25.813333 8.224-36.757333 7.242667a75.797333 75.797333 0 0 1-15.328-2.954667c-3.946667-1.226667-8.384-3.018667-11.424-5.568-1.034667-0.853333-2.293333-1.653333-5.056-1.578666z" fill="#9E2016" p-id="5686"></path><path d="M834.88 789.674667H177.333333c-29.152 0-70.101333-5.578667-83.125333 28.533333-13.024 34.122667 6.826667 57.066667 34.741333 71.968 21.706667 50.858667 83.125333 54.581333 116 35.349333 14.4 21.333333 70.72 23.573333 87.466667 6.826667 37.226667 31.637333 97.386667 20.48 116.618667-15.509333 14.272 32.256 80.021333 42.805333 107.946666 15.509333 68.853333 46.528 157.557333 17.994667 190.432-15.509333 39.701333 35.978667 104.842667 21.717333 114.773334-8.064 24.8 0 62.901333-24.533333 57.066666-70.090667-6.208-48.416-57.056-48.8-83.413333-49.002667h-0.96z" fill="#72CC52" p-id="5687"></path><path d="M834.88 789.674667l0.96 0.010666c26.357333 0.202667 77.205333 0.586667 83.413333 49.002667 5.834667 45.568-32.266667 70.090667-57.066666 70.090667-9.930667 29.781333-75.072 44.053333-114.773334 8.064-32.874667 33.493333-121.578667 62.037333-190.432 15.509333-22.165333 21.674667-68.192 19.488-93.354666 1.514667-6.528-4.650667-11.648-10.378667-14.592-17.024a57.12 57.12 0 0 1-14.634667 17.44c-26.261333 21.226667-71.712 23.797333-101.973333-1.92-16.757333 16.746667-73.088 14.506667-87.466667-6.826667-32.885333 19.221333-94.293333 15.498667-116.010667-35.370667-27.914667-14.88-47.765333-37.834667-34.741333-71.957333 11.466667-30.026667 44.554667-29.301333 72.213333-28.693333 3.754667 0.085333 7.424 0.16 10.912 0.16H834.88z m-657.546667-21.333334h657.717334l1.92 0.021334c12.778667 0.085333 35.2 0.256 55.498666 7.722666 10.773333 3.968 21.856 10.272 30.826667 20.426667 9.12 10.314667 15.061333 23.498667 17.109333 39.466667 3.829333 29.834667-6.912 53.824-23.146666 69.973333-11.84 11.765333-26.88 19.637333-41.568 22.72-5.12 7.168-11.861333 12.874667-18.922667 17.194667-11.093333 6.773333-24.394667 11.061333-38.186667 12.778666-22.165333 2.752-47.850667-0.96-70.24-14.602666-20.522667 15.008-48.821333 26.826667-79.328 31.637333-34.752 5.482667-74.453333 2.208-110.912-17.696-19.306667 11.082667-43.253333 13.056-63.381333 10.048-15.285333-2.293333-32.16-8.096-45.525333-18.282667-13.728 11.562667-31.072 18.666667-48.533334 21.301334-22.581333 3.413333-47.552-0.245333-69.077333-13.130667a76.618667 76.618667 0 0 1-13.077333 4.224c-10.165333 2.346667-21.322667 3.050667-32.053334 2.368-10.709333-0.672-21.856-2.773333-31.861333-6.677333a70.730667 70.730667 0 0 1-13.589333-6.976c-19.04 7.04-41.568 8.8-62.826667 4.106666-25.792-5.674667-50.954667-21.194667-65.610667-49.557333-13.525333-8.074667-26.506667-18.88-34.826666-33.365333-10.24-17.802667-12.096-38.805333-3.456-61.44 10.08-26.4 31.68-36.746667 51.562666-40.426667 14.208-2.634667 30.474667-2.261333 42.624-1.973333 3.306667 0.074667 6.293333 0.138667 8.864 0.138666z" fill="#3B8327" p-id="5688"></path><path d="M96.778667 862.336c4.16 6.890667 10.058667 12.96 17.066666 18.282667a78.453333 78.453333 0 0 1-6.229333-11.786667 119.893333 119.893333 0 0 1-10.837333-6.506667z m38.464 39.701333c27.648 17.877333 65.141333 15.754667 88.373333 2.154667 14.4 21.333333 70.72 23.573333 87.466667 6.826667 37.226667 31.637333 97.386667 20.48 116.618666-15.509334 14.272 32.256 80.021333 42.805333 107.946667 15.509334 68.853333 46.528 157.557333 17.994667 190.432-15.509334 39.701333 35.978667 104.842667 21.717333 114.773333-8.064 24.8 0 62.901333-24.533333 57.066667-70.090666a56.704 56.704 0 0 0-5.162667-17.888c13.312 6.922667 23.872 18.794667 26.496 39.221333 5.834667 45.568-32.266667 70.090667-57.066666 70.090667-9.930667 29.781333-75.072 44.053333-114.773334 8.064-32.874667 33.493333-121.578667 62.037333-190.432 15.509333-27.914667 27.296-93.674667 16.746667-107.946666-15.509333-19.221333 35.978667-79.402667 47.146667-116.618667 15.509333-16.746667 16.746667-73.066667 14.506667-87.466667-6.826667-30.101333 17.610667-84.138667 15.978667-109.706666-23.488z" fill="#60B143" p-id="5689"></path><path d="M182.4 858.517333a15.381333 15.381333 0 1 1-30.752 0 15.381333 15.381333 0 0 1 30.752 0zM257.045333 828.085333a15.381333 15.381333 0 1 1-30.752 0 15.381333 15.381333 0 0 1 30.752 0zM302.229333 878.762667a15.381333 15.381333 0 1 1-30.762666 0 15.381333 15.381333 0 0 1 30.762666 0zM392.896 836.405333a15.381333 15.381333 0 1 1-30.762667 0 15.381333 15.381333 0 0 1 30.762667 0zM484.842667 880.618667a15.381333 15.381333 0 1 1-30.762667 0 15.381333 15.381333 0 0 1 30.762667 0zM486.442667 839.136a15.381333 15.381333 0 1 1-30.752 0 15.381333 15.381333 0 0 1 30.752 0zM583.52 886.229333a15.381333 15.381333 0 1 1-30.752 0 15.381333 15.381333 0 0 1 30.752 0zM554.688 839.136a15.381333 15.381333 0 1 1-30.762667 0 15.381333 15.381333 0 0 1 30.762667 0zM632.213333 839.136a15.381333 15.381333 0 1 1-30.752 0 15.381333 15.381333 0 0 1 30.752 0zM680.106667 891.68a15.381333 15.381333 0 1 1-30.752 0 15.381333 15.381333 0 0 1 30.762666 0zM713.12 828.085333a15.381333 15.381333 0 1 1-30.762667 0 15.381333 15.381333 0 0 1 30.762667 0zM751.562667 869.568a15.381333 15.381333 0 1 1-30.762667 0 15.381333 15.381333 0 0 1 30.762667 0zM806.666667 832.565333a15.381333 15.381333 0 1 1-30.752 0 15.381333 15.381333 0 0 1 30.752 0zM864.981333 845.696a15.381333 15.381333 0 1 1-30.762666 0 15.381333 15.381333 0 0 1 30.762666 0zM362.133333 883.989333a15.381333 15.381333 0 1 1-30.752 0 15.381333 15.381333 0 0 1 30.752 0z" fill="#55B633" p-id="5690"></path><path d="M165.898667 796.682667l4.757333 0.021333h613.333333a10.666667 10.666667 0 1 1 0 21.333333h-613.333333c-1.813333 0-3.573333 0-5.269333-0.021333-10.336-0.042667-18.666667-0.085333-26.144 1.781333-7.68 1.92-14.08 5.834667-19.2 15.306667a10.666667 10.666667 0 0 1-18.773334-10.133333c8.213333-15.2 19.808-22.613333 32.8-25.866667 10.304-2.581333 21.717333-2.496 31.829334-2.421333z" fill="#8BE96A" p-id="5691"></path><path d="M181.322667 807.36a10.666667 10.666667 0 0 1 10.666666-10.666667h80a10.666667 10.666667 0 0 1 0 21.333334h-80a10.666667 10.666667 0 0 1-10.666666-10.666667z" fill="#B5FE9C" p-id="5692"></path></svg>