<svg t="1734336796963" class="icon" viewBox="0 0 1024 1024" version="1.1" xmlns="http://www.w3.org/2000/svg" p-id="4520" width="64" height="64"><path d="M213.333333 569.088a21.333333 21.333333 0 0 1 21.333334-21.333333h554.666666a21.333333 21.333333 0 0 1 21.333334 21.333333v320a42.666667 42.666667 0 0 1-42.666667 42.666667H256a42.666667 42.666667 0 0 1-42.666667-42.666667v-320z" fill="#F6B22F" p-id="4521"></path><path d="M234.666667 526.421333h554.666666a42.666667 42.666667 0 0 1 42.666667 42.666667v320a64 64 0 0 1-64 64H256a64 64 0 0 1-64-64v-320a42.666667 42.666667 0 0 1 42.666667-42.666667z m0 21.333334a21.333333 21.333333 0 0 0-21.333334 21.333333v320a42.666667 42.666667 0 0 0 42.666667 42.666667h512a42.666667 42.666667 0 0 0 42.666667-42.666667v-320a21.333333 21.333333 0 0 0-21.333334-21.333333H234.666667z" fill="#E68C06" p-id="4522"></path><path d="M232.672 646.666667a10.666667 10.666667 0 0 1 10.666667 10.666666v194.666667a10.666667 10.666667 0 1 1-21.333334 0v-194.666667a10.666667 10.666667 0 0 1 10.666667-10.666666z" fill="#FFC24A" p-id="4523"></path><path d="M217.109333 906.645333A42.666667 42.666667 0 0 0 256 931.754667h512a42.666667 42.666667 0 0 0 42.666667-42.666667v-320a21.333333 21.333333 0 0 0-21.333334-21.333333v320a42.666667 42.666667 0 0 1-42.666666 42.666666H234.666667a42.528 42.528 0 0 1-17.557334-3.776z" fill="#E7A320" p-id="4524"></path><path d="M213.333333 526.421333h597.333334v105.333334H213.333333v-105.333334z" fill="#E7A320" p-id="4525"></path><path d="M742.368 715.392a10.346667 10.346667 0 1 1-20.693333 0 10.346667 10.346667 0 0 1 20.693333 0zM761.472 890.741333a10.346667 10.346667 0 1 1-20.693333 0 10.346667 10.346667 0 0 1 20.693333 0zM784.266667 739.701333a13.973333 13.973333 0 1 1-27.936 0 13.973333 13.973333 0 0 1 27.946666 0zM777.28 694.314667a10.474667 10.474667 0 1 1-20.949333 0 10.474667 10.474667 0 0 1 20.96 0zM785.802667 799.701333a21.728 21.728 0 1 1-43.456 0 21.728 21.728 0 0 1 43.456 0zM742.368 760.64a13.973333 13.973333 0 1 1-27.925333 0 13.973333 13.973333 0 0 1 27.925333 0zM789.333333 856.341333a13.973333 13.973333 0 1 1-27.936 0 13.973333 13.973333 0 0 1 27.936 0zM748.970667 844.96a8.469333 8.469333 0 1 1-16.949334 0 8.469333 8.469333 0 0 1 16.949334 0zM719.594667 871.605333a13.973333 13.973333 0 1 1-27.936 0 13.973333 13.973333 0 0 1 27.936 0zM721.674667 824.010667a13.973333 13.973333 0 1 1-27.925334 0 13.973333 13.973333 0 0 1 27.925334 0zM670.474667 890.613333a10.474667 10.474667 0 1 1-20.949334 0 10.474667 10.474667 0 0 1 20.949334 0z" fill="#E88E07" p-id="4526"></path><path d="M128 473.088a85.333333 85.333333 0 0 1 85.333333-85.333333h597.333334a85.333333 85.333333 0 0 1 85.333333 85.333333v85.333333a21.333333 21.333333 0 0 1-21.333333 21.333334H149.333333a21.333333 21.333333 0 0 1-21.333333-21.333334v-85.333333z" fill="#FFC658" p-id="4527"></path><path d="M213.333333 366.421333h597.333334c58.912 0 106.666667 47.754667 106.666666 106.666667v85.333333a42.666667 42.666667 0 0 1-42.666666 42.666667H149.333333a42.666667 42.666667 0 0 1-42.666666-42.666667v-85.333333c0-58.912 47.754667-106.666667 106.666666-106.666667z m0 21.333334a85.333333 85.333333 0 0 0-85.333333 85.333333v85.333333a21.333333 21.333333 0 0 0 21.333333 21.333334h725.333334a21.333333 21.333333 0 0 0 21.333333-21.333334v-85.333333a85.333333 85.333333 0 0 0-85.333333-85.333333H213.333333z" fill="#CF8C0B" p-id="4528"></path><path d="M130.858667 569.088a21.333333 21.333333 0 0 0 18.474666 10.666667h725.333334a21.333333 21.333333 0 0 0 21.333333-21.333334v-85.333333a85.365333 85.365333 0 0 0-58.250667-80.96A85.237333 85.237333 0 0 1 874.666667 462.432v85.333333a21.333333 21.333333 0 0 1-21.333334 21.333334H130.858667z" fill="#F2B43D" p-id="4529"></path><path d="M472 387.754667h88.426667v544h-88.426667v-544z" fill="#FF4646" p-id="4530"></path><path d="M450.666667 366.421333h131.093333v586.666667H450.666667v-586.666667z m21.333333 21.333334v544h88.426667v-544h-88.426667z" fill="#CD2222" p-id="4531"></path><path d="M493.333333 430.421333a10.666667 10.666667 0 0 1 10.666667 10.666667v165.333333a10.666667 10.666667 0 1 1-21.333333 0v-165.333333a10.666667 10.666667 0 0 1 10.666666-10.666667z" fill="#FF7575" p-id="4532"></path><path d="M526.666667 554.421333a10.666667 10.666667 0 0 1 10.666666 10.666667v336a10.666667 10.666667 0 1 1-21.333333 0v-336a10.666667 10.666667 0 0 1 10.666667-10.666667z" fill="#F02E2E" p-id="4533"></path><path d="M294.24 435.861333c9.749333 27.008-49.994667 11.2-67.370667 35.84-28.661333 40.661333-69.6 44.16-79.36 17.152-9.749333-27.008 5.514667-61.866667 46.037334-76.490666 40.512-14.634667 90.933333-3.52 100.693333 23.498666z" fill="#FFE68F" p-id="4534"></path><path d="M300.618667 377.696c80.426667-23.946667 163.093333-12.608 196.437333 0l41.333333-23.946667c-133.333333-57.333333-166.005333-49.994667-202.005333-50.005333l-35.765333 73.952z" fill="#DC2C2C" p-id="4535"></path><path d="M507.744 396.16a21.333333 21.333333 0 0 1-18.24 1.493333c-29.088-11.008-106.965333-22.08-182.794667 0.490667a21.333333 21.333333 0 0 1-25.290666-29.738667l35.765333-73.941333a21.333333 21.333333 0 0 1 19.2-12.053333c3.136 0 6.4-0.064 9.824-0.138667 14.709333-0.32 32.725333-0.693333 58.496 3.989333 31.552 5.738667 74.709333 18.912 142.112 47.893334a21.333333 21.333333 0 0 1 2.261333 38.058666l-41.333333 23.936z m5.952-52.768c-100.832-41.141333-136.138667-40.416-166.517333-39.786667-3.626667 0.074667-7.2 0.149333-10.794667 0.149334l-35.765333 73.941333c8.981333-2.666667 17.994667-4.906667 26.965333-6.752 71.317333-14.645333 139.861333-4.448 169.472 6.752l41.333333-23.946667c-8.64-3.712-16.864-7.157333-24.693333-10.346666z" fill="#B31B1B" p-id="4536"></path><path d="M751.210667 381.152c-94.794667-25.418667-162.741333-22.773333-211.509334-9.376l-28.629333-8.992c121.856-64.373333 168.288-47.552 199.829333-41.813333l40.32 60.181333z" fill="#BF2222" p-id="4537"></path><path d="M532.928 392.085333c3.914667 1.226667 8.117333 1.290667 12.117333 0.192 44.288-12.16 108.266667-15.232 200.245334 9.429334a21.781333 21.781333 0 0 0 23.146666-8.256 21.205333 21.205333 0 0 0 0.64-24.32l-40.309333-60.181334a20.885333 20.885333 0 0 0-13.632-8.906666c-2.112-0.384-4.405333-0.853333-6.901333-1.354667-14.538667-2.954667-35.669333-7.253333-65.162667-4.266667-34.378667 3.488-79.2 16.565333-141.76 49.610667a21.706667 21.706667 0 0 0-11.562667 20.757333 20.8 20.8 0 0 0 14.549334 18.304l28.629333 8.992z m7.445333-20.48c43.210667-11.754667 101.408-15.04 179.872 2.016 9.994667 2.165333 20.309333 4.672 30.965334 7.530667l-40.309334-60.170667c-2.432-0.448-4.96-0.96-7.594666-1.493333-28.864-5.824-71.648-14.464-164.725334 29.504-8.714667 4.128-17.877333 8.704-27.509333 13.792l28.629333 8.992 0.672-0.181333z" fill="#9D1818" p-id="4538"></path><path d="M696.213333 328.64a10.688 10.688 0 0 0-2.133333 14.944l14.272 18.741333a10.645333 10.645333 0 0 0 14.954667 1.888c4.714667-3.605333 5.674667-10.304 2.133333-14.944l-14.272-18.741333a10.645333 10.645333 0 0 0-14.954667-1.888z" fill="#DE3838" p-id="4539"></path><path d="M197.589333 275.413333c132.842667-4.746667 233.333333 57.44 273.781334 87.829334l26.218666-9.834667c-88.032-112.874667-225.429333-153.024-264-154.666667l-8 40.672-28 36z" fill="#EA2F2F" p-id="4540"></path><path d="M478.858667 383.221333a21.333333 21.333333 0 0 1-20.298667-2.922666c-38.613333-28.992-134.314667-88.064-260.213333-83.562667a21.333333 21.333333 0 0 1-17.6-34.421333l24.885333-32 7.029333-35.690667a21.333333 21.333333 0 0 1 21.834667-17.194667c23.189333 0.992 70.122667 12.64 121.856 37.749334 52.266667 25.365333 111.530667 65.461333 158.058667 125.12a21.333333 21.333333 0 0 1-9.333334 33.088l-26.218666 9.834666zM225.6 239.413333l-28 36c9.173333-0.32 18.208-0.341333 27.072-0.053333 119.370667 3.754667 209.056 59.594667 246.72 87.893333l26.208-9.845333a372.8 372.8 0 0 0-14.421333-17.365333c-87.925333-99.658667-213.056-135.744-249.578667-137.301334l-8 40.672z" fill="#B31B1B" p-id="4541"></path><path d="M287.253333 275.968c-25.909333-6.922667-46.549333-7.456-52.8-6.997333a10.666667 10.666667 0 0 1-1.568-21.28c8.853333-0.64 31.893333 0.192 59.872 7.68a10.666667 10.666667 0 0 1-5.514666 20.597333z" fill="#FF4444" p-id="4542"></path><path d="M829.824 290.186667c-117.269333-4.181333-190.805333 30.282667-226.517333 57.098666l-43.989334-0.298666c77.717333-99.637333 207.658667-133.365333 241.706667-134.816l-0.266667 38.848 29.066667 39.168z" fill="#D92525" p-id="4543"></path><path d="M603.157333 368.618667a21.333333 21.333333 0 0 0 12.96-4.266667c31.616-23.754667 100.309333-56.864 212.949334-52.842667a21.333333 21.333333 0 0 0 17.888-34.026666l-24.821334-33.450667 0.213334-31.712a21.333333 21.333333 0 0 0-22.24-21.461333c-20.554667 0.874667-64.288 10.666667-112.373334 32.469333C639.253333 245.333333 584.117333 280.512 542.506667 333.866667a21.333333 21.333333 0 0 0 16.682666 34.453333l43.978667 0.298667z m197.6-117.6l29.066667 39.168c-9.194667-0.32-18.122667-0.426667-26.773333-0.288-101.792 1.461333-166.826667 32.672-199.744 57.386666l-43.989334-0.298666a301.76 301.76 0 0 1 18.208-21.205334c65.632-69.76 156-101.418667 202.133334-110.656 8.96-1.792 16.245333-2.730667 21.354666-2.954666l-0.256 38.848z" fill="#B31B1B" p-id="4544"></path><path d="M781.184 217.301333a10.666667 10.666667 0 0 1 10.666667 10.666667v15.893333a10.666667 10.666667 0 1 1-21.333334 0v-15.893333a10.666667 10.666667 0 0 1 10.666667-10.666667z" fill="#FF5252" p-id="4545"></path><path d="M580.181333 144.416c-101.184 54.848-81.514667 176-81.514666 211.328l21.333333 3.338667c8.853333-86.666667 69.034667-192 115.029333-145.333334 30.997333 31.434667-73.898667 142.698667-118.538666 162.666667h35.381333c54.848-7.338667 138.293333-83.424 154.528-153.333333 12.373333-53.333333-25.365333-133.333333-126.218667-78.666667z" fill="#E33030" p-id="4546"></path><path d="M495.157333 376.789333a21.333333 21.333333 0 0 1-17.824-21.045333c0-2.944-0.213333-7.2-0.490666-12.48-1.034667-20.021333-2.826667-54.869333 3.669333-89.76 8.501333-45.706667 31.552-96.426667 89.504-127.84 27.477333-14.901333 52.544-21.653333 74.965333-20.842667 22.816 0.853333 41.6 9.536 55.605334 23.093334 27.061333 26.186667 34.069333 67.786667 26.592 99.989333-9.386667 40.405333-37.322667 80.362667-68.757334 110.666667-31.082667 29.973333-69.696 54.442667-103.722666 58.986666a21.248 21.248 0 0 1-2.826667 0.192h-35.381333a21.333333 21.333333 0 0 1-21.333334-20.96z m62.112-1.290666c54.762667-11.306667 133.418667-84.757333 149.12-152.416 12.394667-53.333333-25.354667-133.333333-126.208-78.666667-89.493333 48.512-84.448 148.874667-82.090666 195.872 0.32 6.144 0.576 11.381333 0.576 15.466667l21.333333 3.328a241.173333 241.173333 0 0 1 3.082667-21.12c15.317333-81.450667 69.632-167.146667 111.946666-124.213334 24.853333 25.194667-37.621333 101.685333-86.378666 141.333334-2.506667 2.026667-4.970667 3.978667-7.392 5.802666l-0.426667 0.32c-8.693333 6.56-16.746667 11.68-23.477333 14.816a65.813333 65.813333 0 0 1-0.864 0.394667h35.381333c1.770667-0.234667 3.573333-0.544 5.397333-0.917333z m-10.325333-47.04a391.061333 391.061333 0 0 0 40.64-42.56c13.386667-16.405333 23.498667-31.989333 28.522667-44.32 3.541333-8.693333 3.338667-12.373333 3.146666-13.44-3.2-3.082667-5.536-4.010667-6.858666-4.32-1.344-0.32-3.146667-0.352-5.898667 0.704-6.368 2.421333-15.434667 9.813333-25.429333 24.106666-14.346667 20.533333-26.848 49.856-34.122667 79.84z" fill="#BC2020" p-id="4547"></path><path d="M543.573333 180.554667c46.997333-60.746667 105.578667-50.250667 110.517334-49.269334a10.666667 10.666667 0 1 1-4.181334 20.928c-1.728-0.352-49.813333-9.856-89.472 41.397334a10.666667 10.666667 0 0 1-16.874666-13.056z" fill="#FF4444" p-id="4548"></path><path d="M220.661333 426.218667a10.666667 10.666667 0 0 1-10.346666 10.976c-12.992 0.373333-22.186667 9.312-28.298667 17.866666a10.666667 10.666667 0 0 1-17.365333-12.405333c7.232-10.112 21.76-26.112 45.034666-26.794667a10.666667 10.666667 0 0 1 10.976 10.346667z" fill="#FFFFFF" p-id="4549"></path><path d="M304 192.181333c32 86.666667 135.338667 146.005333 206.666667 184-66.848-42.442667-131.029333-120.426667-149.333334-154.666666-18.304-34.24-6.005333-79.328 42.666667-70.656 63.018667 11.221333 101.504 158.314667 122.005333 221.141333 2.442667-35.978667-6.421333-164.085333-59.338666-229.152-81.333333-99.989333-193.749333-34.826667-162.666667 49.333333z" fill="#F23535" p-id="4550"></path><path d="M523.552 393.194667a21.333333 21.333333 0 0 1-22.912 1.813333c-35.808-19.072-80.896-44.138667-121.226667-75.786667-40.149333-31.52-77.461333-70.997333-95.424-119.648-19.712-53.365333 6.592-102.325333 50.986667-120.810666 44.778667-18.634667 102.837333-5.194667 148.234667 50.634666 29.856 36.693333 46.112 89.226667 54.837333 134.933334 8.8 46.090667 10.602667 88.970667 9.237333 109.12a21.333333 21.333333 0 0 1-23.733333 19.744z m-3.882667-110.208c-7.818667-48.426667-23.616-104-53.013333-140.128-81.322667-100-193.738667-34.837333-162.656 49.333333 17.098667 46.293333 54.56 84.8 96.618667 116.416 34.154667 25.674667 71.338667 46.794667 103.125333 63.872 2.336 1.258667 4.64 2.496 6.922667 3.701333a315.221333 315.221333 0 0 1-7.253334-4.746666c-32.042667-21.610667-63.104-50.773333-88.373333-78.677334-25.354667-28-44.874667-54.72-53.706667-71.242666-18.304-34.24-6.005333-79.328 42.666667-70.656 41.781333 7.434667 72.789333 74.624 94.901333 137.365333 7.573333 21.44 14.08 42.368 19.648 60.213333l2.922667 9.333334 0.288 0.938666c1.493333 4.746667 2.901333 9.194667 4.245333 13.290667 0.192-2.869333 0.32-6.325333 0.341334-10.282667 0.16-18.133333-1.525333-46.890667-6.677334-78.72z m-27.061333 54.026666c-8.554667-27.082667-18.805333-57.92-31.221333-86.410666-9.706667-22.293333-20.234667-41.834667-31.424-56.149334-11.456-14.645333-21.514667-21.141333-29.706667-22.602666-8.885333-1.578667-14.197333-0.384-17.12 0.96-2.773333 1.28-4.832 3.317333-6.314667 6.442666-3.306667 6.976-3.424 19.573333 3.328 32.213334 7.957333 14.890667 27.264 41.44 53.365334 69.888 17.749333 19.338667 38.026667 38.88 59.093333 55.658666z" fill="#BC2020" p-id="4551"></path><path d="M350.165333 109.546667a10.666667 10.666667 0 0 1-2.848 14.805333c-10.624 7.2-31.125333 32.234667-16.64 71.466667a10.666667 10.666667 0 1 1-20.021333 7.392c-18.581333-50.346667 7.765333-85.045333 24.693333-96.522667a10.666667 10.666667 0 0 1 14.816 2.848z" fill="#FF7878" p-id="4552"></path></svg>